<svg xmlns="http://www.w3.org/2000/svg" xmlns:xlink="http://www.w3.org/1999/xlink" width="453" zoomAndPan="magnify" viewBox="0 0 339.75 95.249998" height="127" preserveAspectRatio="xMidYMid meet" version="1.0"><defs><g/><clipPath id="4a56de0e0f"><path d="M 20.085938 74.035156 L 34.109375 74.035156 L 34.109375 81.046875 L 20.085938 81.046875 Z M 20.085938 74.035156 " clip-rule="nonzero"/></clipPath><clipPath id="90e396f154"><path d="M 30.605469 74.035156 C 32.539062 74.035156 34.109375 75.605469 34.109375 77.542969 C 34.109375 79.476562 32.539062 81.046875 30.605469 81.046875 L 23.59375 81.046875 C 21.65625 81.046875 20.085938 79.476562 20.085938 77.542969 C 20.085938 75.605469 21.65625 74.035156 23.59375 74.035156 Z M 30.605469 74.035156 " clip-rule="nonzero"/></clipPath><clipPath id="7032fff2b2"><path d="M 305.519531 74.035156 L 319.542969 74.035156 L 319.542969 81.046875 L 305.519531 81.046875 Z M 305.519531 74.035156 " clip-rule="nonzero"/></clipPath><clipPath id="ca2104c108"><path d="M 316.035156 74.035156 C 317.972656 74.035156 319.542969 75.605469 319.542969 77.542969 C 319.542969 79.476562 317.972656 81.046875 316.035156 81.046875 L 309.023438 81.046875 C 307.089844 81.046875 305.519531 79.476562 305.519531 77.542969 C 305.519531 75.605469 307.089844 74.035156 309.023438 74.035156 Z M 316.035156 74.035156 " clip-rule="nonzero"/></clipPath></defs><g fill="#ffffff" fill-opacity="1"><g transform="translate(18.224363, 54.597567)"><g><path d="M 18.65625 0.53125 C 15.476562 0.53125 12.597656 -0.15625 10.015625 -1.53125 C 7.441406 -2.914062 5.414062 -4.835938 3.9375 -7.296875 C 2.46875 -9.753906 1.734375 -12.53125 1.734375 -15.625 C 1.734375 -18.71875 2.46875 -21.488281 3.9375 -23.9375 C 5.414062 -26.394531 7.441406 -28.316406 10.015625 -29.703125 C 12.597656 -31.085938 15.492188 -31.78125 18.703125 -31.78125 C 21.410156 -31.78125 23.859375 -31.300781 26.046875 -30.34375 C 28.234375 -29.394531 30.070312 -28.03125 31.5625 -26.25 L 26.921875 -21.96875 C 24.804688 -24.40625 22.1875 -25.625 19.0625 -25.625 C 17.125 -25.625 15.394531 -25.195312 13.875 -24.34375 C 12.363281 -23.5 11.179688 -22.316406 10.328125 -20.796875 C 9.484375 -19.285156 9.0625 -17.5625 9.0625 -15.625 C 9.0625 -13.6875 9.484375 -11.957031 10.328125 -10.4375 C 11.179688 -8.925781 12.363281 -7.742188 13.875 -6.890625 C 15.394531 -6.046875 17.125 -5.625 19.0625 -5.625 C 22.1875 -5.625 24.804688 -6.859375 26.921875 -9.328125 L 31.5625 -5.046875 C 30.070312 -3.234375 28.222656 -1.847656 26.015625 -0.890625 C 23.816406 0.0546875 21.363281 0.53125 18.65625 0.53125 Z M 18.65625 0.53125 "/></g></g></g><g fill="#ffffff" fill-opacity="1"><g transform="translate(55.274064, 54.597567)"><g><path d="M 17.59375 0.53125 C 13.125 0.53125 9.644531 -0.703125 7.15625 -3.171875 C 4.675781 -5.640625 3.4375 -9.164062 3.4375 -13.75 L 3.4375 -31.25 L 10.671875 -31.25 L 10.671875 -14.015625 C 10.671875 -8.421875 12.992188 -5.625 17.640625 -5.625 C 19.898438 -5.625 21.625 -6.300781 22.8125 -7.65625 C 24 -9.007812 24.59375 -11.128906 24.59375 -14.015625 L 24.59375 -31.25 L 31.734375 -31.25 L 31.734375 -13.75 C 31.734375 -9.164062 30.488281 -5.640625 28 -3.171875 C 25.519531 -0.703125 22.050781 0.53125 17.59375 0.53125 Z M 17.59375 0.53125 "/></g></g></g><g fill="#ffffff" fill-opacity="1"><g transform="translate(94.778796, 54.597567)"><g><path d="M 23.609375 0 L 17.59375 -8.703125 L 10.9375 -8.703125 L 10.9375 0 L 3.703125 0 L 3.703125 -31.25 L 17.234375 -31.25 C 20.003906 -31.25 22.40625 -30.785156 24.4375 -29.859375 C 26.476562 -28.941406 28.046875 -27.632812 29.140625 -25.9375 C 30.242188 -24.238281 30.796875 -22.226562 30.796875 -19.90625 C 30.796875 -17.582031 30.238281 -15.582031 29.125 -13.90625 C 28.007812 -12.226562 26.425781 -10.941406 24.375 -10.046875 L 31.375 0 Z M 23.484375 -19.90625 C 23.484375 -21.664062 22.914062 -23.015625 21.78125 -23.953125 C 20.65625 -24.890625 19.003906 -25.359375 16.828125 -25.359375 L 10.9375 -25.359375 L 10.9375 -14.46875 L 16.828125 -14.46875 C 19.003906 -14.46875 20.65625 -14.941406 21.78125 -15.890625 C 22.914062 -16.847656 23.484375 -18.1875 23.484375 -19.90625 Z M 23.484375 -19.90625 "/></g></g></g><g fill="#ffffff" fill-opacity="1"><g transform="translate(131.917771, 54.597567)"><g><path d="M 24.28125 -6.703125 L 9.78125 -6.703125 L 7.015625 0 L -0.40625 0 L 13.53125 -31.25 L 20.671875 -31.25 L 34.640625 0 L 27.046875 0 Z M 22 -12.1875 L 17.046875 -24.15625 L 12.09375 -12.1875 Z M 22 -12.1875 "/></g></g></g><g fill="#ffffff" fill-opacity="1"><g transform="translate(170.440489, 54.597567)"><g><path d="M 18.65625 0.53125 C 15.476562 0.53125 12.597656 -0.15625 10.015625 -1.53125 C 7.441406 -2.914062 5.414062 -4.835938 3.9375 -7.296875 C 2.46875 -9.753906 1.734375 -12.53125 1.734375 -15.625 C 1.734375 -18.71875 2.46875 -21.488281 3.9375 -23.9375 C 5.414062 -26.394531 7.441406 -28.316406 10.015625 -29.703125 C 12.597656 -31.085938 15.492188 -31.78125 18.703125 -31.78125 C 21.410156 -31.78125 23.859375 -31.300781 26.046875 -30.34375 C 28.234375 -29.394531 30.070312 -28.03125 31.5625 -26.25 L 26.921875 -21.96875 C 24.804688 -24.40625 22.1875 -25.625 19.0625 -25.625 C 17.125 -25.625 15.394531 -25.195312 13.875 -24.34375 C 12.363281 -23.5 11.179688 -22.316406 10.328125 -20.796875 C 9.484375 -19.285156 9.0625 -17.5625 9.0625 -15.625 C 9.0625 -13.6875 9.484375 -11.957031 10.328125 -10.4375 C 11.179688 -8.925781 12.363281 -7.742188 13.875 -6.890625 C 15.394531 -6.046875 17.125 -5.625 19.0625 -5.625 C 22.1875 -5.625 24.804688 -6.859375 26.921875 -9.328125 L 31.5625 -5.046875 C 30.070312 -3.234375 28.222656 -1.847656 26.015625 -0.890625 C 23.816406 0.0546875 21.363281 0.53125 18.65625 0.53125 Z M 18.65625 0.53125 "/></g></g></g><g fill="#ffffff" fill-opacity="1"><g transform="translate(207.490187, 54.597567)"><g><path d="M 18.84375 0.53125 C 15.59375 0.53125 12.664062 -0.164062 10.0625 -1.5625 C 7.457031 -2.957031 5.414062 -4.882812 3.9375 -7.34375 C 2.46875 -9.800781 1.734375 -12.5625 1.734375 -15.625 C 1.734375 -18.6875 2.46875 -21.445312 3.9375 -23.90625 C 5.414062 -26.363281 7.457031 -28.289062 10.0625 -29.6875 C 12.664062 -31.082031 15.59375 -31.78125 18.84375 -31.78125 C 22.082031 -31.78125 24.992188 -31.082031 27.578125 -29.6875 C 30.171875 -28.289062 32.210938 -26.363281 33.703125 -23.90625 C 35.191406 -21.445312 35.9375 -18.6875 35.9375 -15.625 C 35.9375 -12.5625 35.191406 -9.800781 33.703125 -7.34375 C 32.210938 -4.882812 30.171875 -2.957031 27.578125 -1.5625 C 24.992188 -0.164062 22.082031 0.53125 18.84375 0.53125 Z M 18.84375 -5.625 C 20.6875 -5.625 22.347656 -6.046875 23.828125 -6.890625 C 25.316406 -7.742188 26.484375 -8.925781 27.328125 -10.4375 C 28.179688 -11.957031 28.609375 -13.6875 28.609375 -15.625 C 28.609375 -17.5625 28.179688 -19.285156 27.328125 -20.796875 C 26.484375 -22.316406 25.316406 -23.5 23.828125 -24.34375 C 22.347656 -25.195312 20.6875 -25.625 18.84375 -25.625 C 17 -25.625 15.332031 -25.195312 13.84375 -24.34375 C 12.351562 -23.5 11.179688 -22.316406 10.328125 -20.796875 C 9.484375 -19.285156 9.0625 -17.5625 9.0625 -15.625 C 9.0625 -13.6875 9.484375 -11.957031 10.328125 -10.4375 C 11.179688 -8.925781 12.351562 -7.742188 13.84375 -6.890625 C 15.332031 -6.046875 17 -5.625 18.84375 -5.625 Z M 18.84375 -5.625 "/></g></g></g><g fill="#ffffff" fill-opacity="1"><g transform="translate(249.494593, 54.597567)"><g><path d="M 3.703125 -31.25 L 17.90625 -31.25 C 21.289062 -31.25 24.285156 -30.597656 26.890625 -29.296875 C 29.492188 -28.003906 31.515625 -26.179688 32.953125 -23.828125 C 34.398438 -21.484375 35.125 -18.75 35.125 -15.625 C 35.125 -12.5 34.398438 -9.757812 32.953125 -7.40625 C 31.515625 -5.0625 29.492188 -3.238281 26.890625 -1.9375 C 24.285156 -0.644531 21.289062 0 17.90625 0 L 3.703125 0 Z M 17.546875 -5.9375 C 20.671875 -5.9375 23.160156 -6.804688 25.015625 -8.546875 C 26.878906 -10.285156 27.8125 -12.644531 27.8125 -15.625 C 27.8125 -18.601562 26.878906 -20.960938 25.015625 -22.703125 C 23.160156 -24.441406 20.671875 -25.3125 17.546875 -25.3125 L 10.9375 -25.3125 L 10.9375 -5.9375 Z M 17.546875 -5.9375 "/></g></g></g><g fill="#ffffff" fill-opacity="1"><g transform="translate(290.695518, 54.597567)"><g><path d="M 27.90625 -5.796875 L 27.90625 0 L 3.703125 0 L 3.703125 -31.25 L 27.3125 -31.25 L 27.3125 -25.4375 L 10.890625 -25.4375 L 10.890625 -18.65625 L 25.40625 -18.65625 L 25.40625 -13.03125 L 10.890625 -13.03125 L 10.890625 -5.796875 Z M 27.90625 -5.796875 "/></g></g></g><g clip-path="url(#4a56de0e0f)"><g clip-path="url(#90e396f154)"><path fill="#ce9d36" d="M 20.085938 74.035156 L 34.109375 74.035156 L 34.109375 81.046875 L 20.085938 81.046875 Z M 20.085938 74.035156 " fill-opacity="1" fill-rule="nonzero"/></g></g><g fill="#ffffff" fill-opacity="1"><g transform="translate(48.454871, 84.611249)"><g><path d="M 7.734375 0.203125 C 6.429688 0.203125 5.28125 -0.0664062 4.28125 -0.609375 C 3.289062 -1.148438 2.515625 -1.960938 1.953125 -3.046875 C 1.390625 -4.140625 1.109375 -5.484375 1.109375 -7.078125 C 1.109375 -8.671875 1.390625 -10.007812 1.953125 -11.09375 C 2.515625 -12.1875 3.289062 -13.003906 4.28125 -13.546875 C 5.28125 -14.097656 6.429688 -14.375 7.734375 -14.375 C 9.097656 -14.375 10.253906 -14.101562 11.203125 -13.5625 C 12.160156 -13.03125 12.84375 -12.222656 13.25 -11.140625 L 11.203125 -9.890625 L 10.96875 -9.890625 C 10.664062 -10.628906 10.253906 -11.15625 9.734375 -11.46875 C 9.210938 -11.789062 8.546875 -11.953125 7.734375 -11.953125 C 6.566406 -11.953125 5.648438 -11.5625 4.984375 -10.78125 C 4.328125 -10.007812 4 -8.773438 4 -7.078125 C 4 -5.390625 4.328125 -4.15625 4.984375 -3.375 C 5.648438 -2.601562 6.566406 -2.21875 7.734375 -2.21875 C 9.578125 -2.21875 10.707031 -3.113281 11.125 -4.90625 L 11.359375 -4.90625 L 13.421875 -3.828125 C 13.035156 -2.484375 12.375 -1.472656 11.4375 -0.796875 C 10.5 -0.128906 9.265625 0.203125 7.734375 0.203125 Z M 7.734375 0.203125 "/></g></g></g><g fill="#ffffff" fill-opacity="1"><g transform="translate(64.129883, 84.611249)"><g><path d="M 7.515625 0.203125 C 5.554688 0.203125 4.101562 -0.257812 3.15625 -1.1875 C 2.21875 -2.113281 1.75 -3.488281 1.75 -5.3125 L 1.75 -14.171875 L 4.5 -14.171875 L 4.5 -5.328125 C 4.5 -4.296875 4.742188 -3.519531 5.234375 -3 C 5.734375 -2.488281 6.492188 -2.234375 7.515625 -2.234375 C 9.515625 -2.234375 10.515625 -3.265625 10.515625 -5.328125 L 10.515625 -14.171875 L 13.265625 -14.171875 L 13.265625 -5.3125 C 13.265625 -3.488281 12.789062 -2.113281 11.84375 -1.1875 C 10.90625 -0.257812 9.460938 0.203125 7.515625 0.203125 Z M 7.515625 0.203125 "/></g></g></g><g fill="#ffffff" fill-opacity="1"><g transform="translate(80.928418, 84.611249)"><g><path d="M 1.84375 0 L 1.84375 -14.171875 L 7.53125 -14.171875 C 9 -14.171875 10.101562 -13.832031 10.84375 -13.15625 C 11.59375 -12.476562 11.96875 -11.546875 11.96875 -10.359375 C 11.96875 -9.492188 11.75 -8.785156 11.3125 -8.234375 C 10.875 -7.691406 10.222656 -7.273438 9.359375 -6.984375 L 9.359375 -6.78125 C 9.804688 -6.582031 10.164062 -6.289062 10.4375 -5.90625 C 10.71875 -5.53125 10.976562 -4.96875 11.21875 -4.21875 L 12.640625 0 L 9.75 0 L 8.375 -4.234375 C 8.226562 -4.660156 8.066406 -4.988281 7.890625 -5.21875 C 7.710938 -5.457031 7.484375 -5.628906 7.203125 -5.734375 C 6.929688 -5.847656 6.578125 -5.90625 6.140625 -5.90625 L 4.640625 -5.90625 L 4.640625 0 Z M 7.1875 -8.125 C 8.539062 -8.125 9.21875 -8.753906 9.21875 -10.015625 C 9.21875 -11.304688 8.539062 -11.953125 7.1875 -11.953125 L 4.640625 -11.953125 L 4.640625 -8.125 Z M 7.1875 -8.125 "/></g></g></g><g fill="#ffffff" fill-opacity="1"><g transform="translate(95.954501, 84.611249)"><g><path d="M 13.59375 0 L 10.65625 0 L 9.578125 -3.265625 L 4.15625 -3.265625 L 3.09375 0 L 0.21875 0 L 5.109375 -14.171875 L 8.703125 -14.171875 Z M 6.734375 -11.203125 L 4.90625 -5.625 L 8.8125 -5.625 L 6.96875 -11.203125 Z M 6.734375 -11.203125 "/></g></g></g><g fill="#ffffff" fill-opacity="1"><g transform="translate(111.542342, 84.611249)"><g><path d="M 11.359375 -14.171875 L 11.359375 -11.8125 L 7.265625 -11.8125 L 7.265625 0 L 4.46875 0 L 4.46875 -11.8125 L 0.390625 -11.8125 L 0.390625 -14.171875 Z M 11.359375 -14.171875 "/></g></g></g><g fill="#ffffff" fill-opacity="1"><g transform="translate(125.067162, 84.611249)"><g><path d="M 4.640625 -6.21875 L 4.640625 -2.34375 L 11.40625 -2.34375 L 11.40625 0 L 1.84375 0 L 1.84375 -14.171875 L 11.25 -14.171875 L 11.25 -11.828125 L 4.640625 -11.828125 L 4.640625 -8.5 L 10.421875 -8.5 L 10.421875 -6.21875 Z M 4.640625 -6.21875 "/></g></g></g><g fill="#ffffff" fill-opacity="1"><g transform="translate(139.027831, 84.611249)"><g><path d="M 6.9375 -14.171875 C 9.238281 -14.171875 10.992188 -13.570312 12.203125 -12.375 C 13.410156 -11.1875 14.015625 -9.421875 14.015625 -7.078125 C 14.015625 -4.742188 13.410156 -2.976562 12.203125 -1.78125 C 10.992188 -0.59375 9.238281 0 6.9375 0 L 1.84375 0 L 1.84375 -14.171875 Z M 6.765625 -2.359375 C 8.234375 -2.359375 9.328125 -2.726562 10.046875 -3.46875 C 10.773438 -4.21875 11.140625 -5.421875 11.140625 -7.078125 C 11.140625 -8.742188 10.773438 -9.945312 10.046875 -10.6875 C 9.328125 -11.4375 8.234375 -11.8125 6.765625 -11.8125 L 4.640625 -11.8125 L 4.640625 -2.359375 Z M 6.765625 -2.359375 "/></g></g></g><g fill="#ffffff" fill-opacity="1"><g transform="translate(155.952277, 84.611249)"><g/></g></g><g fill="#ffffff" fill-opacity="1"><g transform="translate(162.41634, 84.611249)"><g><path d="M 7.734375 0.203125 C 6.429688 0.203125 5.28125 -0.0664062 4.28125 -0.609375 C 3.289062 -1.148438 2.515625 -1.960938 1.953125 -3.046875 C 1.390625 -4.140625 1.109375 -5.484375 1.109375 -7.078125 C 1.109375 -8.671875 1.390625 -10.007812 1.953125 -11.09375 C 2.515625 -12.1875 3.289062 -13.003906 4.28125 -13.546875 C 5.28125 -14.097656 6.429688 -14.375 7.734375 -14.375 C 9.097656 -14.375 10.253906 -14.101562 11.203125 -13.5625 C 12.160156 -13.03125 12.84375 -12.222656 13.25 -11.140625 L 11.203125 -9.890625 L 10.96875 -9.890625 C 10.664062 -10.628906 10.253906 -11.15625 9.734375 -11.46875 C 9.210938 -11.789062 8.546875 -11.953125 7.734375 -11.953125 C 6.566406 -11.953125 5.648438 -11.5625 4.984375 -10.78125 C 4.328125 -10.007812 4 -8.773438 4 -7.078125 C 4 -5.390625 4.328125 -4.15625 4.984375 -3.375 C 5.648438 -2.601562 6.566406 -2.21875 7.734375 -2.21875 C 9.578125 -2.21875 10.707031 -3.113281 11.125 -4.90625 L 11.359375 -4.90625 L 13.421875 -3.828125 C 13.035156 -2.484375 12.375 -1.472656 11.4375 -0.796875 C 10.5 -0.128906 9.265625 0.203125 7.734375 0.203125 Z M 7.734375 0.203125 "/></g></g></g><g fill="#ffffff" fill-opacity="1"><g transform="translate(178.091356, 84.611249)"><g><path d="M 1.84375 0 L 1.84375 -14.171875 L 7.53125 -14.171875 C 9 -14.171875 10.101562 -13.832031 10.84375 -13.15625 C 11.59375 -12.476562 11.96875 -11.546875 11.96875 -10.359375 C 11.96875 -9.492188 11.75 -8.785156 11.3125 -8.234375 C 10.875 -7.691406 10.222656 -7.273438 9.359375 -6.984375 L 9.359375 -6.78125 C 9.804688 -6.582031 10.164062 -6.289062 10.4375 -5.90625 C 10.71875 -5.53125 10.976562 -4.96875 11.21875 -4.21875 L 12.640625 0 L 9.75 0 L 8.375 -4.234375 C 8.226562 -4.660156 8.066406 -4.988281 7.890625 -5.21875 C 7.710938 -5.457031 7.484375 -5.628906 7.203125 -5.734375 C 6.929688 -5.847656 6.578125 -5.90625 6.140625 -5.90625 L 4.640625 -5.90625 L 4.640625 0 Z M 7.1875 -8.125 C 8.539062 -8.125 9.21875 -8.753906 9.21875 -10.015625 C 9.21875 -11.304688 8.539062 -11.953125 7.1875 -11.953125 L 4.640625 -11.953125 L 4.640625 -8.125 Z M 7.1875 -8.125 "/></g></g></g><g fill="#ffffff" fill-opacity="1"><g transform="translate(193.117441, 84.611249)"><g><path d="M 4.640625 -6.21875 L 4.640625 -2.34375 L 11.40625 -2.34375 L 11.40625 0 L 1.84375 0 L 1.84375 -14.171875 L 11.25 -14.171875 L 11.25 -11.828125 L 4.640625 -11.828125 L 4.640625 -8.5 L 10.421875 -8.5 L 10.421875 -6.21875 Z M 4.640625 -6.21875 "/></g></g></g><g fill="#ffffff" fill-opacity="1"><g transform="translate(207.078116, 84.611249)"><g><path d="M 13.59375 0 L 10.65625 0 L 9.578125 -3.265625 L 4.15625 -3.265625 L 3.09375 0 L 0.21875 0 L 5.109375 -14.171875 L 8.703125 -14.171875 Z M 6.734375 -11.203125 L 4.90625 -5.625 L 8.8125 -5.625 L 6.96875 -11.203125 Z M 6.734375 -11.203125 "/></g></g></g><g fill="#ffffff" fill-opacity="1"><g transform="translate(222.665962, 84.611249)"><g><path d="M 11.359375 -14.171875 L 11.359375 -11.8125 L 7.265625 -11.8125 L 7.265625 0 L 4.46875 0 L 4.46875 -11.8125 L 0.390625 -11.8125 L 0.390625 -14.171875 Z M 11.359375 -14.171875 "/></g></g></g><g fill="#ffffff" fill-opacity="1"><g transform="translate(236.190788, 84.611249)"><g><path d="M 4.640625 0 L 1.84375 0 L 1.84375 -14.171875 L 4.640625 -14.171875 Z M 4.640625 0 "/></g></g></g><g fill="#ffffff" fill-opacity="1"><g transform="translate(244.466036, 84.611249)"><g><path d="M 7.71875 0.203125 C 6.425781 0.203125 5.28125 -0.0625 4.28125 -0.59375 C 3.289062 -1.125 2.515625 -1.929688 1.953125 -3.015625 C 1.390625 -4.109375 1.109375 -5.460938 1.109375 -7.078125 C 1.109375 -8.703125 1.390625 -10.054688 1.953125 -11.140625 C 2.515625 -12.234375 3.289062 -13.046875 4.28125 -13.578125 C 5.28125 -14.109375 6.425781 -14.375 7.71875 -14.375 C 9.019531 -14.375 10.164062 -14.109375 11.15625 -13.578125 C 12.144531 -13.054688 12.914062 -12.25 13.46875 -11.15625 C 14.03125 -10.0625 14.3125 -8.703125 14.3125 -7.078125 C 14.3125 -5.460938 14.03125 -4.109375 13.46875 -3.015625 C 12.914062 -1.921875 12.144531 -1.109375 11.15625 -0.578125 C 10.164062 -0.0546875 9.019531 0.203125 7.71875 0.203125 Z M 7.71875 -2.234375 C 8.925781 -2.234375 9.84375 -2.617188 10.46875 -3.390625 C 11.101562 -4.160156 11.421875 -5.390625 11.421875 -7.078125 C 11.421875 -8.773438 11.101562 -10.007812 10.46875 -10.78125 C 9.84375 -11.5625 8.925781 -11.953125 7.71875 -11.953125 C 6.507812 -11.953125 5.585938 -11.5625 4.953125 -10.78125 C 4.316406 -10.007812 4 -8.773438 4 -7.078125 C 4 -5.390625 4.316406 -4.160156 4.953125 -3.390625 C 5.585938 -2.617188 6.507812 -2.234375 7.71875 -2.234375 Z M 7.71875 -2.234375 "/></g></g></g><g fill="#ffffff" fill-opacity="1"><g transform="translate(261.681054, 84.611249)"><g><path d="M 4.546875 0 L 1.84375 0 L 1.84375 -14.171875 L 5.046875 -14.171875 L 10.734375 -5.03125 L 10.984375 -5.078125 L 10.984375 -14.171875 L 13.6875 -14.171875 L 13.6875 0 L 10.8125 0 L 4.796875 -9.75 L 4.546875 -9.703125 Z M 4.546875 0 "/></g></g></g><g fill="#ffffff" fill-opacity="1"><g transform="translate(278.992928, 84.611249)"><g><path d="M 6.28125 0.203125 C 5.300781 0.203125 4.425781 0.0820312 3.65625 -0.15625 C 2.894531 -0.394531 2.257812 -0.710938 1.75 -1.109375 C 1.238281 -1.503906 0.847656 -1.9375 0.578125 -2.40625 L 2.109375 -4.296875 L 2.359375 -4.296875 C 2.785156 -3.660156 3.328125 -3.15625 3.984375 -2.78125 C 4.640625 -2.40625 5.40625 -2.21875 6.28125 -2.21875 C 7.03125 -2.21875 7.59375 -2.375 7.96875 -2.6875 C 8.351562 -3.007812 8.546875 -3.445312 8.546875 -4 C 8.546875 -4.332031 8.484375 -4.613281 8.359375 -4.84375 C 8.234375 -5.070312 8.03125 -5.265625 7.75 -5.421875 C 7.46875 -5.585938 7.082031 -5.726562 6.59375 -5.84375 L 4.78125 -6.265625 C 3.507812 -6.554688 2.5625 -7.035156 1.9375 -7.703125 C 1.3125 -8.378906 1 -9.257812 1 -10.34375 C 1 -11.144531 1.195312 -11.847656 1.59375 -12.453125 C 2 -13.054688 2.582031 -13.523438 3.34375 -13.859375 C 4.113281 -14.203125 5.03125 -14.375 6.09375 -14.375 C 7.1875 -14.375 8.117188 -14.226562 8.890625 -13.9375 C 9.671875 -13.644531 10.332031 -13.203125 10.875 -12.609375 L 9.484375 -10.71875 L 9.25 -10.71875 C 8.84375 -11.132812 8.378906 -11.445312 7.859375 -11.65625 C 7.347656 -11.863281 6.757812 -11.96875 6.09375 -11.96875 C 5.320312 -11.96875 4.734375 -11.832031 4.328125 -11.5625 C 3.929688 -11.289062 3.734375 -10.914062 3.734375 -10.4375 C 3.734375 -10 3.875 -9.644531 4.15625 -9.375 C 4.4375 -9.113281 4.925781 -8.910156 5.625 -8.765625 L 7.484375 -8.375 C 8.859375 -8.082031 9.851562 -7.585938 10.46875 -6.890625 C 11.09375 -6.203125 11.40625 -5.296875 11.40625 -4.171875 C 11.40625 -3.285156 11.210938 -2.515625 10.828125 -1.859375 C 10.453125 -1.203125 9.878906 -0.691406 9.109375 -0.328125 C 8.335938 0.0234375 7.394531 0.203125 6.28125 0.203125 Z M 6.28125 0.203125 "/></g></g></g><g clip-path="url(#7032fff2b2)"><g clip-path="url(#ca2104c108)"><path fill="#ce9d36" d="M 305.519531 74.035156 L 319.542969 74.035156 L 319.542969 81.046875 L 305.519531 81.046875 Z M 305.519531 74.035156 " fill-opacity="1" fill-rule="nonzero"/></g></g></svg>