<svg xmlns="http://www.w3.org/2000/svg" xmlns:xlink="http://www.w3.org/1999/xlink" width="500" zoomAndPan="magnify" viewBox="0 0 375 374.999991" height="500" preserveAspectRatio="xMidYMid meet" version="1.0"><defs><g/><clipPath id="f3caa6f8ec"><path d="M 79.265625 49.625 L 179 49.625 L 179 221 L 79.265625 221 Z M 79.265625 49.625 " clip-rule="nonzero"/></clipPath><clipPath id="88f099bd9b"><path d="M 196.746094 49.746094 L 295.96875 49.746094 L 295.96875 220.792969 L 196.746094 220.792969 Z M 196.746094 49.746094 " clip-rule="nonzero"/></clipPath><clipPath id="8ddcb8c254"><path d="M 88.832031 226.234375 L 286.371094 226.234375 L 286.371094 294.125 L 88.832031 294.125 Z M 88.832031 226.234375 " clip-rule="nonzero"/></clipPath><clipPath id="bfdc2087d5"><path d="M 113.625 171.375 L 185.625 171.375 L 185.625 243.375 L 113.625 243.375 Z M 113.625 171.375 " clip-rule="nonzero"/></clipPath><clipPath id="3fb35fbe34"><path d="M 113.625 95.625 L 185.625 95.625 L 185.625 167.625 L 113.625 167.625 Z M 113.625 95.625 " clip-rule="nonzero"/></clipPath><clipPath id="b5af55f3ec"><path d="M 189.375 95.625 L 261.375 95.625 L 261.375 167.625 L 189.375 167.625 Z M 189.375 95.625 " clip-rule="nonzero"/></clipPath><clipPath id="73c858ac1c"><path d="M 189.375 171.375 L 261.375 171.375 L 261.375 243.375 L 189.375 243.375 Z M 189.375 171.375 " clip-rule="nonzero"/></clipPath><clipPath id="2a5ae8bd18"><path d="M 178.125 160.125 L 196.875 160.125 L 196.875 178.875 L 178.125 178.875 Z M 178.125 160.125 " clip-rule="nonzero"/></clipPath><clipPath id="9ed8aeb1f6"><path d="M 187.5 160.125 C 182.324219 160.125 178.125 164.324219 178.125 169.5 C 178.125 174.675781 182.324219 178.875 187.5 178.875 C 192.675781 178.875 196.875 174.675781 196.875 169.5 C 196.875 164.324219 192.675781 160.125 187.5 160.125 Z M 187.5 160.125 " clip-rule="nonzero"/></clipPath><clipPath id="e9f3b30710"><path d="M 183.75 165.75 L 191.25 165.75 L 191.25 173.25 L 183.75 173.25 Z M 183.75 165.75 " clip-rule="nonzero"/></clipPath><clipPath id="27ccb999c7"><path d="M 187.5 165.75 C 185.429688 165.75 183.75 167.429688 183.75 169.5 C 183.75 171.570312 185.429688 173.25 187.5 173.25 C 189.570312 173.25 191.25 171.570312 191.25 169.5 C 191.25 167.429688 189.570312 165.75 187.5 165.75 Z M 187.5 165.75 " clip-rule="nonzero"/></clipPath></defs><g clip-path="url(#f3caa6f8ec)"><path fill="#28292a" d="M 98.015625 209.996094 L 98.015625 117.691406 C 98.015625 117.519531 98.105469 117.363281 98.253906 117.277344 L 178.210938 71.125 C 178.359375 71.039062 178.449219 70.878906 178.449219 70.710938 L 178.449219 50.226562 C 178.449219 49.855469 178.050781 49.625 177.730469 49.808594 L 79.550781 106.480469 C 79.402344 106.566406 79.3125 106.722656 79.3125 106.894531 L 79.3125 220.238281 C 79.3125 220.605469 79.710938 220.835938 80.03125 220.652344 L 97.777344 210.410156 C 97.921875 210.324219 98.015625 210.167969 98.015625 209.996094 " fill-opacity="1" fill-rule="nonzero"/></g><g clip-path="url(#88f099bd9b)"><path fill="#28292a" d="M 197.070312 71.125 L 277.027344 117.277344 C 277.175781 117.363281 277.265625 117.519531 277.265625 117.691406 L 277.265625 209.996094 C 277.265625 210.167969 277.359375 210.324219 277.503906 210.410156 L 295.25 220.652344 C 295.570312 220.835938 295.96875 220.605469 295.96875 220.238281 L 295.96875 106.894531 C 295.96875 106.722656 295.878906 106.566406 295.730469 106.480469 L 197.550781 49.808594 C 197.230469 49.625 196.828125 49.855469 196.828125 50.226562 L 196.828125 70.710938 C 196.828125 70.878906 196.921875 71.039062 197.070312 71.125 " fill-opacity="1" fill-rule="nonzero"/></g><g clip-path="url(#8ddcb8c254)"><path fill="#28292a" d="M 267.835938 226.320312 L 187.878906 272.472656 C 187.730469 272.558594 187.550781 272.558594 187.398438 272.472656 L 107.445312 226.320312 C 107.296875 226.238281 107.113281 226.238281 106.964844 226.320312 L 89.21875 236.566406 C 88.898438 236.75 88.898438 237.210938 89.21875 237.394531 L 187.398438 294.066406 C 187.550781 294.152344 187.730469 294.152344 187.878906 294.066406 L 286.0625 237.394531 C 286.378906 237.210938 286.378906 236.75 286.0625 236.566406 L 268.316406 226.320312 C 268.167969 226.238281 267.984375 226.238281 267.835938 226.320312 " fill-opacity="1" fill-rule="nonzero"/></g><g clip-path="url(#bfdc2087d5)"><path fill="#ce9d36" d="M 113.625 171.375 L 125.78125 171.375 C 125.78125 204.371094 152.628906 231.21875 185.625 231.21875 L 185.625 243.375 C 180.742188 243.375 175.863281 242.882812 171.121094 241.914062 C 166.496094 240.964844 161.945312 239.554688 157.597656 237.714844 C 153.328125 235.910156 149.214844 233.675781 145.363281 231.074219 C 141.554688 228.5 137.96875 225.542969 134.714844 222.285156 C 131.457031 219.03125 128.5 215.445312 125.925781 211.636719 C 123.324219 207.785156 121.089844 203.671875 119.285156 199.402344 C 117.445312 195.054688 116.035156 190.503906 115.085938 185.878906 C 114.117188 181.136719 113.625 176.257812 113.625 171.375 Z M 113.625 171.375 " fill-opacity="1" fill-rule="nonzero"/></g><g clip-path="url(#3fb35fbe34)"><path fill="#ce9d36" d="M 185.625 95.625 L 185.625 107.78125 C 152.628906 107.78125 125.78125 134.628906 125.78125 167.625 L 113.625 167.625 C 113.625 162.742188 114.117188 157.863281 115.085938 153.121094 C 116.035156 148.496094 117.445312 143.945312 119.285156 139.597656 C 121.089844 135.328125 123.324219 131.214844 125.925781 127.363281 C 128.5 123.554688 131.457031 119.96875 134.714844 116.714844 C 137.96875 113.457031 141.554688 110.5 145.363281 107.925781 C 149.214844 105.324219 153.328125 103.089844 157.597656 101.285156 C 161.945312 99.445312 166.496094 98.035156 171.121094 97.085938 C 175.863281 96.117188 180.742188 95.625 185.625 95.625 Z M 185.625 95.625 " fill-opacity="1" fill-rule="nonzero"/></g><g clip-path="url(#b5af55f3ec)"><path fill="#ce9d36" d="M 261.375 167.625 L 249.21875 167.625 C 249.21875 134.628906 222.371094 107.78125 189.375 107.78125 L 189.375 95.625 C 194.257812 95.625 199.136719 96.117188 203.878906 97.085938 C 208.503906 98.035156 213.054688 99.445312 217.402344 101.285156 C 221.671875 103.089844 225.785156 105.324219 229.636719 107.925781 C 233.445312 110.5 237.03125 113.457031 240.285156 116.714844 C 243.542969 119.96875 246.5 123.554688 249.074219 127.363281 C 251.675781 131.214844 253.910156 135.328125 255.714844 139.597656 C 257.554688 143.945312 258.964844 148.496094 259.914062 153.121094 C 260.882812 157.863281 261.375 162.742188 261.375 167.625 Z M 261.375 167.625 " fill-opacity="1" fill-rule="nonzero"/></g><g clip-path="url(#73c858ac1c)"><path fill="#ce9d36" d="M 189.375 243.375 L 189.375 231.21875 C 222.371094 231.21875 249.21875 204.371094 249.21875 171.375 L 261.375 171.375 C 261.375 176.257812 260.882812 181.136719 259.914062 185.878906 C 258.964844 190.503906 257.554688 195.054688 255.714844 199.402344 C 253.910156 203.671875 251.675781 207.785156 249.074219 211.636719 C 246.5 215.445312 243.542969 219.03125 240.285156 222.285156 C 237.03125 225.542969 233.445312 228.5 229.636719 231.074219 C 225.785156 233.675781 221.671875 235.910156 217.402344 237.714844 C 213.054688 239.554688 208.503906 240.964844 203.878906 241.914062 C 199.136719 242.882812 194.257812 243.375 189.375 243.375 Z M 189.375 243.375 " fill-opacity="1" fill-rule="nonzero"/></g><g fill="#28292a" fill-opacity="1"><g transform="translate(131.049341, 220.499986)"><g><path d="M 60.1875 0.859375 C 50.207031 0.859375 41.207031 -1.347656 33.1875 -5.765625 C 25.175781 -10.179688 18.890625 -16.300781 14.328125 -24.125 C 9.765625 -31.945312 7.484375 -40.707031 7.484375 -50.40625 C 7.484375 -60.09375 9.765625 -68.847656 14.328125 -76.671875 C 18.890625 -84.503906 25.203125 -90.625 33.265625 -95.03125 C 41.328125 -99.445312 50.351562 -101.65625 60.34375 -101.65625 C 67.820312 -101.65625 74.726562 -100.40625 81.0625 -97.90625 C 87.40625 -95.414062 92.785156 -91.769531 97.203125 -86.96875 L 90.4375 -80.203125 C 82.5625 -88.171875 72.625 -92.15625 60.625 -92.15625 C 52.65625 -92.15625 45.40625 -90.332031 38.875 -86.6875 C 32.351562 -83.039062 27.242188 -78.046875 23.546875 -71.703125 C 19.847656 -65.367188 18 -58.269531 18 -50.40625 C 18 -42.53125 19.847656 -35.421875 23.546875 -29.078125 C 27.242188 -22.742188 32.351562 -17.753906 38.875 -14.109375 C 45.40625 -10.460938 52.65625 -8.640625 60.625 -8.640625 C 72.71875 -8.640625 82.65625 -12.671875 90.4375 -20.734375 L 97.203125 -13.96875 C 92.785156 -9.164062 87.382812 -5.492188 81 -2.953125 C 74.613281 -0.410156 67.675781 0.859375 60.1875 0.859375 Z M 60.1875 0.859375 "/></g></g></g><g fill="#deb24f" fill-opacity="1"><g transform="translate(240.94285, 129.747296)"><g><path d="M -49.3125 -0.703125 C -41.132812 -0.703125 -33.757812 1.101562 -27.1875 4.71875 C -20.625 8.332031 -15.472656 13.34375 -11.734375 19.75 C -8.003906 26.164062 -6.140625 33.347656 -6.140625 41.296875 C -6.140625 49.234375 -8.003906 56.40625 -11.734375 62.8125 C -15.472656 69.226562 -20.644531 74.242188 -27.25 77.859375 C -33.863281 81.484375 -41.257812 83.296875 -49.4375 83.296875 C -55.570312 83.296875 -61.234375 82.269531 -66.421875 80.21875 C -71.617188 78.175781 -76.023438 75.191406 -79.640625 71.265625 L -74.09375 65.71875 C -67.644531 72.25 -59.503906 75.515625 -49.671875 75.515625 C -43.140625 75.515625 -37.195312 74.019531 -31.84375 71.03125 C -26.5 68.039062 -22.3125 63.945312 -19.28125 58.75 C -16.257812 53.5625 -14.75 47.742188 -14.75 41.296875 C -14.75 34.847656 -16.257812 29.023438 -19.28125 23.828125 C -22.3125 18.640625 -26.5 14.550781 -31.84375 11.5625 C -37.195312 8.570312 -43.140625 7.078125 -49.671875 7.078125 C -59.578125 7.078125 -67.71875 10.378906 -74.09375 16.984375 L -79.640625 11.4375 C -76.023438 7.507812 -71.597656 4.503906 -66.359375 2.421875 C -61.128906 0.335938 -55.445312 -0.703125 -49.3125 -0.703125 Z M -49.3125 -0.703125 "/></g></g></g><g clip-path="url(#2a5ae8bd18)"><g clip-path="url(#9ed8aeb1f6)"><path fill="#545454" d="M 178.125 160.125 L 196.875 160.125 L 196.875 178.875 L 178.125 178.875 Z M 178.125 160.125 " fill-opacity="1" fill-rule="nonzero"/></g></g><g clip-path="url(#e9f3b30710)"><g clip-path="url(#27ccb999c7)"><path fill="#28292a" d="M 183.75 165.75 L 191.25 165.75 L 191.25 173.25 L 183.75 173.25 Z M 183.75 165.75 " fill-opacity="1" fill-rule="nonzero"/></g></g><g fill="#ffffff" fill-opacity="1"><g transform="translate(38.841605, 326.249979)"><g><path d="M 18.8125 0.546875 C 15.601562 0.546875 12.695312 -0.148438 10.09375 -1.546875 C 7.5 -2.941406 5.457031 -4.875 3.96875 -7.34375 C 2.488281 -9.820312 1.75 -12.625 1.75 -15.75 C 1.75 -18.875 2.488281 -21.671875 3.96875 -24.140625 C 5.457031 -26.617188 7.5 -28.554688 10.09375 -29.953125 C 12.695312 -31.347656 15.617188 -32.046875 18.859375 -32.046875 C 21.585938 -32.046875 24.050781 -31.5625 26.25 -30.59375 C 28.457031 -29.632812 30.3125 -28.253906 31.8125 -26.453125 L 27.140625 -22.140625 C 25.003906 -24.597656 22.363281 -25.828125 19.21875 -25.828125 C 17.269531 -25.828125 15.53125 -25.398438 14 -24.546875 C 12.46875 -23.691406 11.273438 -22.5 10.421875 -20.96875 C 9.566406 -19.4375 9.140625 -17.695312 9.140625 -15.75 C 9.140625 -13.800781 9.566406 -12.0625 10.421875 -10.53125 C 11.273438 -9 12.46875 -7.804688 14 -6.953125 C 15.53125 -6.097656 17.269531 -5.671875 19.21875 -5.671875 C 22.363281 -5.671875 25.003906 -6.914062 27.140625 -9.40625 L 31.8125 -5.078125 C 30.3125 -3.253906 28.453125 -1.859375 26.234375 -0.890625 C 24.015625 0.0664062 21.539062 0.546875 18.8125 0.546875 Z M 18.8125 0.546875 "/></g></g></g><g fill="#ffffff" fill-opacity="1"><g transform="translate(76.183036, 326.249979)"><g><path d="M 17.734375 0.546875 C 13.234375 0.546875 9.726562 -0.695312 7.21875 -3.1875 C 4.71875 -5.6875 3.46875 -9.242188 3.46875 -13.859375 L 3.46875 -31.5 L 10.75 -31.5 L 10.75 -14.125 C 10.75 -8.488281 13.09375 -5.671875 17.78125 -5.671875 C 20.050781 -5.671875 21.785156 -6.351562 22.984375 -7.71875 C 24.191406 -9.082031 24.796875 -11.21875 24.796875 -14.125 L 24.796875 -31.5 L 32 -31.5 L 32 -13.859375 C 32 -9.242188 30.742188 -5.6875 28.234375 -3.1875 C 25.734375 -0.695312 22.234375 0.546875 17.734375 0.546875 Z M 17.734375 0.546875 "/></g></g></g><g fill="#ffffff" fill-opacity="1"><g transform="translate(115.998828, 326.249979)"><g><path d="M 23.8125 0 L 17.734375 -8.78125 L 11.03125 -8.78125 L 11.03125 0 L 3.734375 0 L 3.734375 -31.5 L 17.375 -31.5 C 20.164062 -31.5 22.585938 -31.03125 24.640625 -30.09375 C 26.691406 -29.164062 28.269531 -27.847656 29.375 -26.140625 C 30.488281 -24.429688 31.046875 -22.40625 31.046875 -20.0625 C 31.046875 -17.726562 30.484375 -15.710938 29.359375 -14.015625 C 28.234375 -12.316406 26.632812 -11.019531 24.5625 -10.125 L 31.640625 0 Z M 23.671875 -20.0625 C 23.671875 -21.832031 23.097656 -23.191406 21.953125 -24.140625 C 20.816406 -25.085938 19.15625 -25.5625 16.96875 -25.5625 L 11.03125 -25.5625 L 11.03125 -14.578125 L 16.96875 -14.578125 C 19.15625 -14.578125 20.816406 -15.054688 21.953125 -16.015625 C 23.097656 -16.972656 23.671875 -18.320312 23.671875 -20.0625 Z M 23.671875 -20.0625 "/></g></g></g><g fill="#ffffff" fill-opacity="1"><g transform="translate(153.430235, 326.249979)"><g><path d="M 24.484375 -6.75 L 9.859375 -6.75 L 7.0625 0 L -0.40625 0 L 13.640625 -31.5 L 20.828125 -31.5 L 34.921875 0 L 27.265625 0 Z M 22.1875 -12.28125 L 17.1875 -24.34375 L 12.1875 -12.28125 Z M 22.1875 -12.28125 "/></g></g></g><g fill="#ffffff" fill-opacity="1"><g transform="translate(192.256282, 326.249979)"><g><path d="M 18.8125 0.546875 C 15.601562 0.546875 12.695312 -0.148438 10.09375 -1.546875 C 7.5 -2.941406 5.457031 -4.875 3.96875 -7.34375 C 2.488281 -9.820312 1.75 -12.625 1.75 -15.75 C 1.75 -18.875 2.488281 -21.671875 3.96875 -24.140625 C 5.457031 -26.617188 7.5 -28.554688 10.09375 -29.953125 C 12.695312 -31.347656 15.617188 -32.046875 18.859375 -32.046875 C 21.585938 -32.046875 24.050781 -31.5625 26.25 -30.59375 C 28.457031 -29.632812 30.3125 -28.253906 31.8125 -26.453125 L 27.140625 -22.140625 C 25.003906 -24.597656 22.363281 -25.828125 19.21875 -25.828125 C 17.269531 -25.828125 15.53125 -25.398438 14 -24.546875 C 12.46875 -23.691406 11.273438 -22.5 10.421875 -20.96875 C 9.566406 -19.4375 9.140625 -17.695312 9.140625 -15.75 C 9.140625 -13.800781 9.566406 -12.0625 10.421875 -10.53125 C 11.273438 -9 12.46875 -7.804688 14 -6.953125 C 15.53125 -6.097656 17.269531 -5.671875 19.21875 -5.671875 C 22.363281 -5.671875 25.003906 -6.914062 27.140625 -9.40625 L 31.8125 -5.078125 C 30.3125 -3.253906 28.453125 -1.859375 26.234375 -0.890625 C 24.015625 0.0664062 21.539062 0.546875 18.8125 0.546875 Z M 18.8125 0.546875 "/></g></g></g><g fill="#ffffff" fill-opacity="1"><g transform="translate(229.59771, 326.249979)"><g><path d="M 18.984375 0.546875 C 15.710938 0.546875 12.765625 -0.15625 10.140625 -1.5625 C 7.515625 -2.976562 5.457031 -4.921875 3.96875 -7.390625 C 2.488281 -9.867188 1.75 -12.65625 1.75 -15.75 C 1.75 -18.84375 2.488281 -21.625 3.96875 -24.09375 C 5.457031 -26.570312 7.515625 -28.515625 10.140625 -29.921875 C 12.765625 -31.335938 15.710938 -32.046875 18.984375 -32.046875 C 22.253906 -32.046875 25.191406 -31.335938 27.796875 -29.921875 C 30.410156 -28.515625 32.46875 -26.570312 33.96875 -24.09375 C 35.46875 -21.625 36.21875 -18.84375 36.21875 -15.75 C 36.21875 -12.65625 35.46875 -9.867188 33.96875 -7.390625 C 32.46875 -4.921875 30.410156 -2.976562 27.796875 -1.5625 C 25.191406 -0.15625 22.253906 0.546875 18.984375 0.546875 Z M 18.984375 -5.671875 C 20.847656 -5.671875 22.53125 -6.097656 24.03125 -6.953125 C 25.53125 -7.804688 26.707031 -9 27.5625 -10.53125 C 28.414062 -12.0625 28.84375 -13.800781 28.84375 -15.75 C 28.84375 -17.695312 28.414062 -19.4375 27.5625 -20.96875 C 26.707031 -22.5 25.53125 -23.691406 24.03125 -24.546875 C 22.53125 -25.398438 20.847656 -25.828125 18.984375 -25.828125 C 17.128906 -25.828125 15.453125 -25.398438 13.953125 -24.546875 C 12.453125 -23.691406 11.273438 -22.5 10.421875 -20.96875 C 9.566406 -19.4375 9.140625 -17.695312 9.140625 -15.75 C 9.140625 -13.800781 9.566406 -12.0625 10.421875 -10.53125 C 11.273438 -9 12.453125 -7.804688 13.953125 -6.953125 C 15.453125 -6.097656 17.128906 -5.671875 18.984375 -5.671875 Z M 18.984375 -5.671875 "/></g></g></g><g fill="#ffffff" fill-opacity="1"><g transform="translate(271.932859, 326.249979)"><g><path d="M 3.734375 -31.5 L 18.046875 -31.5 C 21.460938 -31.5 24.484375 -30.84375 27.109375 -29.53125 C 29.734375 -28.226562 31.773438 -26.390625 33.234375 -24.015625 C 34.691406 -21.648438 35.421875 -18.894531 35.421875 -15.75 C 35.421875 -12.601562 34.691406 -9.84375 33.234375 -7.46875 C 31.773438 -5.101562 29.734375 -3.265625 27.109375 -1.953125 C 24.484375 -0.648438 21.460938 0 18.046875 0 L 3.734375 0 Z M 17.6875 -5.984375 C 20.832031 -5.984375 23.34375 -6.859375 25.21875 -8.609375 C 27.09375 -10.367188 28.03125 -12.75 28.03125 -15.75 C 28.03125 -18.75 27.09375 -21.125 25.21875 -22.875 C 23.34375 -24.632812 20.832031 -25.515625 17.6875 -25.515625 L 11.03125 -25.515625 L 11.03125 -5.984375 Z M 17.6875 -5.984375 "/></g></g></g><g fill="#ffffff" fill-opacity="1"><g transform="translate(313.458201, 326.249979)"><g><path d="M 28.125 -5.84375 L 28.125 0 L 3.734375 0 L 3.734375 -31.5 L 27.546875 -31.5 L 27.546875 -25.65625 L 10.984375 -25.65625 L 10.984375 -18.8125 L 25.609375 -18.8125 L 25.609375 -13.140625 L 10.984375 -13.140625 L 10.984375 -5.84375 Z M 28.125 -5.84375 "/></g></g></g></svg>