<svg xmlns="http://www.w3.org/2000/svg" xmlns:xlink="http://www.w3.org/1999/xlink" width="403" zoomAndPan="magnify" viewBox="0 0 302.25 33.749998" height="45" preserveAspectRatio="xMidYMid meet" version="1.0"><defs><g/><clipPath id="34de500e1a"><path d="M 0.738281 13.136719 L 14.769531 13.136719 L 14.769531 20.148438 L 0.738281 20.148438 Z M 0.738281 13.136719 " clip-rule="nonzero"/></clipPath><clipPath id="ed1503c034"><path d="M 11.261719 13.136719 C 13.199219 13.136719 14.769531 14.707031 14.769531 16.640625 C 14.769531 18.578125 13.199219 20.148438 11.261719 20.148438 L 4.246094 20.148438 C 2.308594 20.148438 0.738281 18.578125 0.738281 16.640625 C 0.738281 14.707031 2.308594 13.136719 4.246094 13.136719 Z M 11.261719 13.136719 " clip-rule="nonzero"/></clipPath><clipPath id="cb07233e26"><path d="M 286.304688 13.136719 L 300.332031 13.136719 L 300.332031 20.148438 L 286.304688 20.148438 Z M 286.304688 13.136719 " clip-rule="nonzero"/></clipPath><clipPath id="f1ac0a176d"><path d="M 296.824219 13.136719 C 298.761719 13.136719 300.332031 14.707031 300.332031 16.640625 C 300.332031 18.578125 298.761719 20.148438 296.824219 20.148438 L 289.808594 20.148438 C 287.875 20.148438 286.304688 18.578125 286.304688 16.640625 C 286.304688 14.707031 287.875 13.136719 289.808594 13.136719 Z M 296.824219 13.136719 " clip-rule="nonzero"/></clipPath></defs><g clip-path="url(#34de500e1a)"><g clip-path="url(#ed1503c034)"><path fill="#ce9d36" d="M 0.738281 13.136719 L 14.769531 13.136719 L 14.769531 20.148438 L 0.738281 20.148438 Z M 0.738281 13.136719 " fill-opacity="1" fill-rule="nonzero"/></g></g><g fill="#ffffff" fill-opacity="1"><g transform="translate(29.119995, 23.714959)"><g><path d="M 7.734375 0.203125 C 6.429688 0.203125 5.28125 -0.0664062 4.28125 -0.609375 C 3.289062 -1.148438 2.515625 -1.960938 1.953125 -3.046875 C 1.390625 -4.140625 1.109375 -5.484375 1.109375 -7.078125 C 1.109375 -8.671875 1.390625 -10.007812 1.953125 -11.09375 C 2.515625 -12.1875 3.289062 -13.003906 4.28125 -13.546875 C 5.28125 -14.097656 6.429688 -14.375 7.734375 -14.375 C 9.097656 -14.375 10.253906 -14.101562 11.203125 -13.5625 C 12.160156 -13.03125 12.84375 -12.222656 13.25 -11.140625 L 11.203125 -9.890625 L 10.96875 -9.890625 C 10.664062 -10.628906 10.253906 -11.15625 9.734375 -11.46875 C 9.210938 -11.789062 8.546875 -11.953125 7.734375 -11.953125 C 6.566406 -11.953125 5.648438 -11.5625 4.984375 -10.78125 C 4.328125 -10.007812 4 -8.773438 4 -7.078125 C 4 -5.390625 4.328125 -4.15625 4.984375 -3.375 C 5.648438 -2.601562 6.566406 -2.21875 7.734375 -2.21875 C 9.578125 -2.21875 10.707031 -3.113281 11.125 -4.90625 L 11.359375 -4.90625 L 13.421875 -3.828125 C 13.035156 -2.484375 12.375 -1.472656 11.4375 -0.796875 C 10.5 -0.128906 9.265625 0.203125 7.734375 0.203125 Z M 7.734375 0.203125 "/></g></g></g><g fill="#ffffff" fill-opacity="1"><g transform="translate(44.802267, 23.714959)"><g><path d="M 7.515625 0.203125 C 5.554688 0.203125 4.101562 -0.257812 3.15625 -1.1875 C 2.21875 -2.113281 1.75 -3.488281 1.75 -5.3125 L 1.75 -14.171875 L 4.5 -14.171875 L 4.5 -5.328125 C 4.5 -4.296875 4.742188 -3.519531 5.234375 -3 C 5.734375 -2.488281 6.492188 -2.234375 7.515625 -2.234375 C 9.515625 -2.234375 10.515625 -3.265625 10.515625 -5.328125 L 10.515625 -14.171875 L 13.265625 -14.171875 L 13.265625 -5.3125 C 13.265625 -3.488281 12.789062 -2.113281 11.84375 -1.1875 C 10.90625 -0.257812 9.460938 0.203125 7.515625 0.203125 Z M 7.515625 0.203125 "/></g></g></g><g fill="#ffffff" fill-opacity="1"><g transform="translate(61.608582, 23.714959)"><g><path d="M 1.84375 0 L 1.84375 -14.171875 L 7.53125 -14.171875 C 9 -14.171875 10.101562 -13.832031 10.84375 -13.15625 C 11.59375 -12.476562 11.96875 -11.546875 11.96875 -10.359375 C 11.96875 -9.492188 11.75 -8.785156 11.3125 -8.234375 C 10.875 -7.691406 10.222656 -7.273438 9.359375 -6.984375 L 9.359375 -6.78125 C 9.804688 -6.582031 10.164062 -6.289062 10.4375 -5.90625 C 10.71875 -5.53125 10.976562 -4.96875 11.21875 -4.21875 L 12.640625 0 L 9.75 0 L 8.375 -4.234375 C 8.226562 -4.660156 8.066406 -4.988281 7.890625 -5.21875 C 7.710938 -5.457031 7.484375 -5.628906 7.203125 -5.734375 C 6.929688 -5.847656 6.578125 -5.90625 6.140625 -5.90625 L 4.640625 -5.90625 L 4.640625 0 Z M 7.1875 -8.125 C 8.539062 -8.125 9.21875 -8.753906 9.21875 -10.015625 C 9.21875 -11.304688 8.539062 -11.953125 7.1875 -11.953125 L 4.640625 -11.953125 L 4.640625 -8.125 Z M 7.1875 -8.125 "/></g></g></g><g fill="#ffffff" fill-opacity="1"><g transform="translate(76.641624, 23.714959)"><g><path d="M 13.59375 0 L 10.65625 0 L 9.578125 -3.265625 L 4.15625 -3.265625 L 3.09375 0 L 0.21875 0 L 5.109375 -14.171875 L 8.703125 -14.171875 Z M 6.734375 -11.203125 L 4.90625 -5.625 L 8.8125 -5.625 L 6.96875 -11.203125 Z M 6.734375 -11.203125 "/></g></g></g><g fill="#ffffff" fill-opacity="1"><g transform="translate(92.236684, 23.714959)"><g><path d="M 11.359375 -14.171875 L 11.359375 -11.8125 L 7.265625 -11.8125 L 7.265625 0 L 4.46875 0 L 4.46875 -11.8125 L 0.390625 -11.8125 L 0.390625 -14.171875 Z M 11.359375 -14.171875 "/></g></g></g><g fill="#ffffff" fill-opacity="1"><g transform="translate(105.767768, 23.714959)"><g><path d="M 4.640625 -6.21875 L 4.640625 -2.34375 L 11.40625 -2.34375 L 11.40625 0 L 1.84375 0 L 1.84375 -14.171875 L 11.25 -14.171875 L 11.25 -11.828125 L 4.640625 -11.828125 L 4.640625 -8.5 L 10.421875 -8.5 L 10.421875 -6.21875 Z M 4.640625 -6.21875 "/></g></g></g><g fill="#ffffff" fill-opacity="1"><g transform="translate(119.734903, 23.714959)"><g><path d="M 6.9375 -14.171875 C 9.238281 -14.171875 10.992188 -13.570312 12.203125 -12.375 C 13.410156 -11.1875 14.015625 -9.421875 14.015625 -7.078125 C 14.015625 -4.742188 13.410156 -2.976562 12.203125 -1.78125 C 10.992188 -0.59375 9.238281 0 6.9375 0 L 1.84375 0 L 1.84375 -14.171875 Z M 6.765625 -2.359375 C 8.234375 -2.359375 9.328125 -2.726562 10.046875 -3.46875 C 10.773438 -4.21875 11.140625 -5.421875 11.140625 -7.078125 C 11.140625 -8.742188 10.773438 -9.945312 10.046875 -10.6875 C 9.328125 -11.4375 8.234375 -11.8125 6.765625 -11.8125 L 4.640625 -11.8125 L 4.640625 -2.359375 Z M 6.765625 -2.359375 "/></g></g></g><g fill="#ffffff" fill-opacity="1"><g transform="translate(136.667187, 23.714959)"><g/></g></g><g fill="#ffffff" fill-opacity="1"><g transform="translate(143.134244, 23.714959)"><g><path d="M 7.734375 0.203125 C 6.429688 0.203125 5.28125 -0.0664062 4.28125 -0.609375 C 3.289062 -1.148438 2.515625 -1.960938 1.953125 -3.046875 C 1.390625 -4.140625 1.109375 -5.484375 1.109375 -7.078125 C 1.109375 -8.671875 1.390625 -10.007812 1.953125 -11.09375 C 2.515625 -12.1875 3.289062 -13.003906 4.28125 -13.546875 C 5.28125 -14.097656 6.429688 -14.375 7.734375 -14.375 C 9.097656 -14.375 10.253906 -14.101562 11.203125 -13.5625 C 12.160156 -13.03125 12.84375 -12.222656 13.25 -11.140625 L 11.203125 -9.890625 L 10.96875 -9.890625 C 10.664062 -10.628906 10.253906 -11.15625 9.734375 -11.46875 C 9.210938 -11.789062 8.546875 -11.953125 7.734375 -11.953125 C 6.566406 -11.953125 5.648438 -11.5625 4.984375 -10.78125 C 4.328125 -10.007812 4 -8.773438 4 -7.078125 C 4 -5.390625 4.328125 -4.15625 4.984375 -3.375 C 5.648438 -2.601562 6.566406 -2.21875 7.734375 -2.21875 C 9.578125 -2.21875 10.707031 -3.113281 11.125 -4.90625 L 11.359375 -4.90625 L 13.421875 -3.828125 C 13.035156 -2.484375 12.375 -1.472656 11.4375 -0.796875 C 10.5 -0.128906 9.265625 0.203125 7.734375 0.203125 Z M 7.734375 0.203125 "/></g></g></g><g fill="#ffffff" fill-opacity="1"><g transform="translate(158.81652, 23.714959)"><g><path d="M 1.84375 0 L 1.84375 -14.171875 L 7.53125 -14.171875 C 9 -14.171875 10.101562 -13.832031 10.84375 -13.15625 C 11.59375 -12.476562 11.96875 -11.546875 11.96875 -10.359375 C 11.96875 -9.492188 11.75 -8.785156 11.3125 -8.234375 C 10.875 -7.691406 10.222656 -7.273438 9.359375 -6.984375 L 9.359375 -6.78125 C 9.804688 -6.582031 10.164062 -6.289062 10.4375 -5.90625 C 10.71875 -5.53125 10.976562 -4.96875 11.21875 -4.21875 L 12.640625 0 L 9.75 0 L 8.375 -4.234375 C 8.226562 -4.660156 8.066406 -4.988281 7.890625 -5.21875 C 7.710938 -5.457031 7.484375 -5.628906 7.203125 -5.734375 C 6.929688 -5.847656 6.578125 -5.90625 6.140625 -5.90625 L 4.640625 -5.90625 L 4.640625 0 Z M 7.1875 -8.125 C 8.539062 -8.125 9.21875 -8.753906 9.21875 -10.015625 C 9.21875 -11.304688 8.539062 -11.953125 7.1875 -11.953125 L 4.640625 -11.953125 L 4.640625 -8.125 Z M 7.1875 -8.125 "/></g></g></g><g fill="#ffffff" fill-opacity="1"><g transform="translate(173.849564, 23.714959)"><g><path d="M 4.640625 -6.21875 L 4.640625 -2.34375 L 11.40625 -2.34375 L 11.40625 0 L 1.84375 0 L 1.84375 -14.171875 L 11.25 -14.171875 L 11.25 -11.828125 L 4.640625 -11.828125 L 4.640625 -8.5 L 10.421875 -8.5 L 10.421875 -6.21875 Z M 4.640625 -6.21875 "/></g></g></g><g fill="#ffffff" fill-opacity="1"><g transform="translate(187.816704, 23.714959)"><g><path d="M 13.59375 0 L 10.65625 0 L 9.578125 -3.265625 L 4.15625 -3.265625 L 3.09375 0 L 0.21875 0 L 5.109375 -14.171875 L 8.703125 -14.171875 Z M 6.734375 -11.203125 L 4.90625 -5.625 L 8.8125 -5.625 L 6.96875 -11.203125 Z M 6.734375 -11.203125 "/></g></g></g><g fill="#ffffff" fill-opacity="1"><g transform="translate(203.41177, 23.714959)"><g><path d="M 11.359375 -14.171875 L 11.359375 -11.8125 L 7.265625 -11.8125 L 7.265625 0 L 4.46875 0 L 4.46875 -11.8125 L 0.390625 -11.8125 L 0.390625 -14.171875 Z M 11.359375 -14.171875 "/></g></g></g><g fill="#ffffff" fill-opacity="1"><g transform="translate(216.94286, 23.714959)"><g><path d="M 4.640625 0 L 1.84375 0 L 1.84375 -14.171875 L 4.640625 -14.171875 Z M 4.640625 0 "/></g></g></g><g fill="#ffffff" fill-opacity="1"><g transform="translate(225.221941, 23.714959)"><g><path d="M 7.71875 0.203125 C 6.425781 0.203125 5.28125 -0.0625 4.28125 -0.59375 C 3.289062 -1.125 2.515625 -1.929688 1.953125 -3.015625 C 1.390625 -4.109375 1.109375 -5.460938 1.109375 -7.078125 C 1.109375 -8.703125 1.390625 -10.054688 1.953125 -11.140625 C 2.515625 -12.234375 3.289062 -13.046875 4.28125 -13.578125 C 5.28125 -14.109375 6.425781 -14.375 7.71875 -14.375 C 9.019531 -14.375 10.164062 -14.109375 11.15625 -13.578125 C 12.144531 -13.054688 12.914062 -12.25 13.46875 -11.15625 C 14.03125 -10.0625 14.3125 -8.703125 14.3125 -7.078125 C 14.3125 -5.460938 14.03125 -4.109375 13.46875 -3.015625 C 12.914062 -1.921875 12.144531 -1.109375 11.15625 -0.578125 C 10.164062 -0.0546875 9.019531 0.203125 7.71875 0.203125 Z M 7.71875 -2.234375 C 8.925781 -2.234375 9.84375 -2.617188 10.46875 -3.390625 C 11.101562 -4.160156 11.421875 -5.390625 11.421875 -7.078125 C 11.421875 -8.773438 11.101562 -10.007812 10.46875 -10.78125 C 9.84375 -11.5625 8.925781 -11.953125 7.71875 -11.953125 C 6.507812 -11.953125 5.585938 -11.5625 4.953125 -10.78125 C 4.316406 -10.007812 4 -8.773438 4 -7.078125 C 4 -5.390625 4.316406 -4.160156 4.953125 -3.390625 C 5.585938 -2.617188 6.507812 -2.234375 7.71875 -2.234375 Z M 7.71875 -2.234375 "/></g></g></g><g fill="#ffffff" fill-opacity="1"><g transform="translate(242.444932, 23.714959)"><g><path d="M 4.546875 0 L 1.84375 0 L 1.84375 -14.171875 L 5.046875 -14.171875 L 10.734375 -5.03125 L 10.984375 -5.078125 L 10.984375 -14.171875 L 13.6875 -14.171875 L 13.6875 0 L 10.8125 0 L 4.796875 -9.75 L 4.546875 -9.703125 Z M 4.546875 0 "/></g></g></g><g fill="#ffffff" fill-opacity="1"><g transform="translate(259.764824, 23.714959)"><g><path d="M 6.28125 0.203125 C 5.300781 0.203125 4.425781 0.0820312 3.65625 -0.15625 C 2.894531 -0.394531 2.257812 -0.710938 1.75 -1.109375 C 1.238281 -1.503906 0.847656 -1.9375 0.578125 -2.40625 L 2.109375 -4.296875 L 2.359375 -4.296875 C 2.785156 -3.660156 3.328125 -3.15625 3.984375 -2.78125 C 4.640625 -2.40625 5.40625 -2.21875 6.28125 -2.21875 C 7.03125 -2.21875 7.59375 -2.375 7.96875 -2.6875 C 8.351562 -3.007812 8.546875 -3.445312 8.546875 -4 C 8.546875 -4.332031 8.484375 -4.613281 8.359375 -4.84375 C 8.234375 -5.070312 8.03125 -5.265625 7.75 -5.421875 C 7.46875 -5.585938 7.082031 -5.726562 6.59375 -5.84375 L 4.78125 -6.265625 C 3.507812 -6.554688 2.5625 -7.035156 1.9375 -7.703125 C 1.3125 -8.378906 1 -9.257812 1 -10.34375 C 1 -11.144531 1.195312 -11.847656 1.59375 -12.453125 C 2 -13.054688 2.582031 -13.523438 3.34375 -13.859375 C 4.113281 -14.203125 5.03125 -14.375 6.09375 -14.375 C 7.1875 -14.375 8.117188 -14.226562 8.890625 -13.9375 C 9.671875 -13.644531 10.332031 -13.203125 10.875 -12.609375 L 9.484375 -10.71875 L 9.25 -10.71875 C 8.84375 -11.132812 8.378906 -11.445312 7.859375 -11.65625 C 7.347656 -11.863281 6.757812 -11.96875 6.09375 -11.96875 C 5.320312 -11.96875 4.734375 -11.832031 4.328125 -11.5625 C 3.929688 -11.289062 3.734375 -10.914062 3.734375 -10.4375 C 3.734375 -10 3.875 -9.644531 4.15625 -9.375 C 4.4375 -9.113281 4.925781 -8.910156 5.625 -8.765625 L 7.484375 -8.375 C 8.859375 -8.082031 9.851562 -7.585938 10.46875 -6.890625 C 11.09375 -6.203125 11.40625 -5.296875 11.40625 -4.171875 C 11.40625 -3.285156 11.210938 -2.515625 10.828125 -1.859375 C 10.453125 -1.203125 9.878906 -0.691406 9.109375 -0.328125 C 8.335938 0.0234375 7.394531 0.203125 6.28125 0.203125 Z M 6.28125 0.203125 "/></g></g></g><g clip-path="url(#cb07233e26)"><g clip-path="url(#f1ac0a176d)"><path fill="#ce9d36" d="M 286.304688 13.136719 L 300.332031 13.136719 L 300.332031 20.148438 L 286.304688 20.148438 Z M 286.304688 13.136719 " fill-opacity="1" fill-rule="nonzero"/></g></g></svg>