<?xml version="1.0" encoding="UTF-8" standalone="no"?>
<svg
   width="200"
   zoomAndPan="magnify"
   viewBox="0 0 150 169.19475"
   height="225.593"
   preserveAspectRatio="xMidYMid"
   version="1.0"
   id="svg28"
   sodipodi:docname="logo.svg"
   inkscape:version="1.3.2 (091e20e, 2023-11-25, custom)"
   xmlns:inkscape="http://www.inkscape.org/namespaces/inkscape"
   xmlns:sodipodi="http://sodipodi.sourceforge.net/DTD/sodipodi-0.dtd"
   xmlns="http://www.w3.org/2000/svg"
   xmlns:svg="http://www.w3.org/2000/svg">
  <sodipodi:namedview
     id="namedview28"
     pagecolor="#505050"
     bordercolor="#eeeeee"
     borderopacity="1"
     inkscape:showpageshadow="0"
     inkscape:pageopacity="0"
     inkscape:pagecheckerboard="0"
     inkscape:deskcolor="#505050"
     inkscape:zoom="10.3577"
     inkscape:cx="146.36454"
     inkscape:cy="107.31147"
     inkscape:window-width="3840"
     inkscape:window-height="2066"
     inkscape:window-x="3829"
     inkscape:window-y="-11"
     inkscape:window-maximized="1"
     inkscape:current-layer="svg28" />
  <defs
     id="defs11">
    <g
       id="g1" />
    <clipPath
       id="9134883b6b">
      <path
         d="M 79.265625,49.625 H 179 V 221 H 79.265625 Z m 0,0"
         clip-rule="nonzero"
         id="path1" />
    </clipPath>
    <clipPath
       id="a1f488e294">
      <path
         d="m 196.74609,49.746094 h 99.22266 V 220.79297 h -99.22266 z m 0,0"
         clip-rule="nonzero"
         id="path2" />
    </clipPath>
    <clipPath
       id="ab97cd3135">
      <path
         d="M 88.832031,226.23437 H 286.37109 V 294.125 H 88.832031 Z m 0,0"
         clip-rule="nonzero"
         id="path3" />
    </clipPath>
    <clipPath
       id="4cd449ee2c">
      <path
         d="m 113.625,171.375 h 72 v 72 h -72 z m 0,0"
         clip-rule="nonzero"
         id="path4" />
    </clipPath>
    <clipPath
       id="e66b7c28e4">
      <path
         d="m 113.625,95.625 h 72 v 72 h -72 z m 0,0"
         clip-rule="nonzero"
         id="path5" />
    </clipPath>
    <clipPath
       id="2d51ead946">
      <path
         d="m 189.375,95.625 h 72 v 72 h -72 z m 0,0"
         clip-rule="nonzero"
         id="path6" />
    </clipPath>
    <clipPath
       id="dc13b86235">
      <path
         d="m 189.375,171.375 h 72 v 72 h -72 z m 0,0"
         clip-rule="nonzero"
         id="path7" />
    </clipPath>
    <clipPath
       id="6a0f5e3468">
      <path
         d="m 178.125,160.125 h 18.75 v 18.75 h -18.75 z m 0,0"
         clip-rule="nonzero"
         id="path8" />
    </clipPath>
    <clipPath
       id="4de09a81ce">
      <path
         d="m 187.5,160.125 c -5.17578,0 -9.375,4.19922 -9.375,9.375 0,5.17578 4.19922,9.375 9.375,9.375 5.17578,0 9.375,-4.19922 9.375,-9.375 0,-5.17578 -4.19922,-9.375 -9.375,-9.375 z m 0,0"
         clip-rule="nonzero"
         id="path9" />
    </clipPath>
    <clipPath
       id="79d1ebd8eb">
      <path
         d="m 183.75,165.75 h 7.5 v 7.5 h -7.5 z m 0,0"
         clip-rule="nonzero"
         id="path10" />
    </clipPath>
    <clipPath
       id="d6117bc074">
      <path
         d="m 187.5,165.75 c -2.07031,0 -3.75,1.67969 -3.75,3.75 0,2.07031 1.67969,3.75 3.75,3.75 2.07031,0 3.75,-1.67969 3.75,-3.75 0,-2.07031 -1.67969,-3.75 -3.75,-3.75 z m 0,0"
         clip-rule="nonzero"
         id="path11" />
    </clipPath>
  </defs>
  <g
     clip-path="url(#9134883b6b)"
     id="g12"
     transform="matrix(0.69234098,0,0,0.69234098,-54.893901,-34.384543)">
    <path
       fill="#28292a"
       d="m 98.015625,209.99609 v -92.30468 c 0,-0.17188 0.08984,-0.32813 0.238281,-0.41407 L 178.21094,71.125 c 0.14843,-0.08594 0.23828,-0.246094 0.23828,-0.414062 V 50.226562 c 0,-0.371093 -0.39844,-0.601562 -0.71875,-0.417968 L 79.550781,106.48047 c -0.148437,0.0859 -0.238281,0.24219 -0.238281,0.41406 v 113.34375 c 0,0.36719 0.398438,0.59766 0.71875,0.41406 l 17.746094,-10.24218 c 0.144531,-0.0859 0.238281,-0.24219 0.238281,-0.41407"
       fill-opacity="1"
       fill-rule="nonzero"
       id="path12" />
  </g>
  <g
     clip-path="url(#a1f488e294)"
     id="g13"
     transform="matrix(0.69234098,0,0,0.69234098,-54.893901,-34.384543)">
    <path
       fill="#28292a"
       d="m 197.07031,71.125 79.95703,46.15234 c 0.14844,0.0859 0.23828,0.24219 0.23828,0.41407 v 92.30468 c 0,0.17188 0.0937,0.32813 0.23829,0.41407 L 295.25,220.65234 c 0.32031,0.1836 0.71875,-0.0469 0.71875,-0.41406 V 106.89453 c 0,-0.17187 -0.0898,-0.32812 -0.23828,-0.41406 L 197.55078,49.808594 c -0.32031,-0.183594 -0.72266,0.04687 -0.72266,0.417968 v 20.484376 c 0,0.167968 0.0937,0.328124 0.24219,0.414062"
       fill-opacity="1"
       fill-rule="nonzero"
       id="path13" />
  </g>
  <g
     clip-path="url(#ab97cd3135)"
     id="g14"
     transform="matrix(0.69234098,0,0,0.69234098,-54.893901,-34.384543)">
    <path
       fill="#28292a"
       d="m 267.83594,226.32031 -79.95703,46.15235 c -0.14844,0.0859 -0.32813,0.0859 -0.48047,0 l -79.95313,-46.15235 c -0.14843,-0.082 -0.33203,-0.082 -0.48047,0 l -17.74609,10.2461 c -0.320312,0.18359 -0.320312,0.64453 0,0.82812 l 98.17969,56.67188 c 0.15234,0.0859 0.33203,0.0859 0.48047,0 l 98.18359,-56.67188 c 0.31641,-0.18359 0.31641,-0.64453 0,-0.82812 l -17.74609,-10.2461 c -0.14844,-0.082 -0.33204,-0.082 -0.48047,0"
       fill-opacity="1"
       fill-rule="nonzero"
       id="path14" />
  </g>
  <g
     clip-path="url(#4cd449ee2c)"
     id="g15"
     transform="matrix(0.69234098,0,0,0.69234098,-54.893901,-34.384543)">
    <path
       fill="#ce9d36"
       d="m 113.625,171.375 h 12.15625 c 0,32.99609 26.84766,59.84375 59.84375,59.84375 V 243.375 c -4.88281,0 -9.76172,-0.49219 -14.50391,-1.46094 -4.625,-0.94922 -9.17578,-2.35937 -13.52343,-4.19922 -4.26954,-1.80468 -8.38282,-4.03906 -12.23438,-6.64062 -3.80859,-2.57422 -7.39453,-5.53125 -10.64844,-8.78906 -3.25781,-3.25391 -6.21484,-6.83985 -8.78906,-10.64844 -2.60156,-3.85156 -4.83594,-7.96485 -6.64062,-12.23438 -1.83985,-4.34765 -3.25,-8.89843 -4.19922,-13.52343 -0.96875,-4.74219 -1.46094,-9.6211 -1.46094,-14.50391 z m 0,0"
       fill-opacity="1"
       fill-rule="nonzero"
       id="path15" />
  </g>
  <g
     clip-path="url(#e66b7c28e4)"
     id="g16"
     transform="matrix(0.69234098,0,0,0.69234098,-54.893901,-34.384543)">
    <path
       fill="#ce9d36"
       d="m 185.625,95.625 v 12.15625 c -32.99609,0 -59.84375,26.84766 -59.84375,59.84375 H 113.625 c 0,-4.88281 0.49219,-9.76172 1.46094,-14.50391 0.94922,-4.625 2.35937,-9.17578 4.19922,-13.52343 1.80468,-4.26954 4.03906,-8.38282 6.64062,-12.23438 2.57422,-3.80859 5.53125,-7.39453 8.78906,-10.64844 3.25391,-3.25781 6.83985,-6.21484 10.64844,-8.78906 3.85156,-2.60156 7.96484,-4.83594 12.23438,-6.64062 4.34765,-1.839848 8.89843,-3.250004 13.52343,-4.199222 4.74219,-0.96875 9.6211,-1.460938 14.50391,-1.460938 z m 0,0"
       fill-opacity="1"
       fill-rule="nonzero"
       id="path16" />
  </g>
  <g
     clip-path="url(#2d51ead946)"
     id="g17"
     transform="matrix(0.69234098,0,0,0.69234098,-54.893901,-34.384543)">
    <path
       fill="#ce9d36"
       d="m 261.375,167.625 h -12.15625 c 0,-32.99609 -26.84766,-59.84375 -59.84375,-59.84375 V 95.625 c 4.88281,0 9.76172,0.492188 14.50391,1.460938 4.625,0.949218 9.17578,2.359374 13.52343,4.199222 4.26953,1.80468 8.38282,4.03906 12.23438,6.64062 3.80859,2.57422 7.39453,5.53125 10.64844,8.78906 3.25781,3.25391 6.21484,6.83985 8.78906,10.64844 2.60156,3.85156 4.83594,7.96484 6.64062,12.23438 1.83985,4.34765 3.25,8.89843 4.19922,13.52343 0.96875,4.74219 1.46094,9.6211 1.46094,14.50391 z m 0,0"
       fill-opacity="1"
       fill-rule="nonzero"
       id="path17" />
  </g>
  <g
     clip-path="url(#dc13b86235)"
     id="g18"
     transform="matrix(0.69234098,0,0,0.69234098,-54.893901,-34.384543)">
    <path
       fill="#ce9d36"
       d="m 189.375,243.375 v -12.15625 c 32.99609,0 59.84375,-26.84766 59.84375,-59.84375 H 261.375 c 0,4.88281 -0.49219,9.76172 -1.46094,14.50391 -0.94922,4.625 -2.35937,9.17578 -4.19922,13.52343 -1.80468,4.26953 -4.03906,8.38282 -6.64062,12.23438 -2.57422,3.80859 -5.53125,7.39453 -8.78906,10.64844 -3.25391,3.25781 -6.83985,6.21484 -10.64844,8.78906 -3.85156,2.60156 -7.96485,4.83594 -12.23438,6.64062 -4.34765,1.83985 -8.89843,3.25 -13.52343,4.19922 -4.74219,0.96875 -9.6211,1.46094 -14.50391,1.46094 z m 0,0"
       fill-opacity="1"
       fill-rule="nonzero"
       id="path18" />
  </g>
  <g
     fill="#28292a"
     fill-opacity="1"
     id="g21"
     transform="matrix(0.69234098,0,0,0.69234098,-54.893901,-34.384543)">
    <g
       transform="translate(131.04934,220.49999)"
       id="g20">
      <g
         id="g19">
        <path
           d="m 60.1875,0.859375 c -9.980469,0 -18.980469,-2.207031 -27,-6.625 -8.011719,-4.414063 -14.296875,-10.535156 -18.859375,-18.359375 -4.5625,-7.820312 -6.84375,-16.582031 -6.84375,-26.28125 0,-9.6875 2.28125,-18.441406 6.84375,-26.265625 4.5625,-7.832031 10.875,-13.953125 18.9375,-18.359375 8.0625,-4.414062 17.085937,-6.625 27.078125,-6.625 7.476562,0 14.382812,1.25 20.71875,3.75 6.34375,2.492188 11.722656,6.136719 16.140625,10.9375 L 90.4375,-80.203125 C 82.5625,-88.171875 72.625,-92.15625 60.625,-92.15625 c -7.96875,0 -15.21875,1.824219 -21.75,5.46875 -6.523438,3.648438 -11.632812,8.640625 -15.328125,14.984375 C 19.847656,-65.367188 18,-58.269531 18,-50.40625 c 0,7.875 1.847656,14.984375 5.546875,21.328125 3.695313,6.335937 8.804687,11.324219 15.328125,14.96875 6.53125,3.648437 13.78125,5.46875 21.75,5.46875 12.09375,0 22.03125,-4.03125 29.8125,-12.09375 l 6.765625,6.765625 C 92.785156,-9.164062 87.382812,-5.492188 81,-2.953125 c -6.386719,2.542969 -13.324219,3.8125 -20.8125,3.8125 z m 0,0"
           id="path19" />
      </g>
    </g>
  </g>
  <g
     fill="#deb24f"
     fill-opacity="1"
     id="g24"
     transform="matrix(0.69234098,0,0,0.69234098,-54.863445,-34.869517)">
    <g
       transform="translate(240.94285,129.74735)"
       id="g23">
      <g
         id="g22">
        <path
           d="m -49.3125,-0.703125 c 8.179688,0 15.554688,1.804687 22.125,5.421875 6.5625,3.613281 11.714844,8.625 15.453125,15.03125 3.730469,6.414062 5.59375,13.597656 5.59375,21.546875 0,7.9375 -1.863281,15.109375 -5.59375,21.515625 -3.738281,6.414062 -8.910156,11.429688 -15.515625,15.046875 -6.613281,3.625 -14.007812,5.4375 -22.1875,5.4375 -6.132812,0 -11.796875,-1.027344 -16.984375,-3.078125 -5.195313,-2.042969 -9.601563,-5.027344 -13.21875,-8.953125 l 5.546875,-5.546875 c 6.449219,6.53125 14.589844,9.796875 24.421875,9.796875 6.53125,0 12.476563,-1.496094 17.828125,-4.484375 C -26.5,68.039062 -22.3125,63.945312 -19.28125,58.75 -16.257812,53.5625 -14.75,47.742188 -14.75,41.296875 c 0,-6.449219 -1.507812,-12.273437 -4.53125,-17.46875 C -22.3125,18.640625 -26.5,14.550781 -31.84375,11.5625 -37.195312,8.570312 -43.140625,7.078125 -49.671875,7.078125 c -9.90625,0 -18.046875,3.300781 -24.421875,9.90625 L -79.640625,11.4375 c 3.617187,-3.929688 8.042969,-6.933594 13.28125,-9.015625 5.230469,-2.085937 10.914063,-3.125 17.046875,-3.125 z m 0,0"
           id="path21" />
      </g>
    </g>
  </g>
  <g
     clip-path="url(#6a0f5e3468)"
     id="g26"
     transform="matrix(0.69234098,0,0,0.69234098,-54.893901,-34.384543)">
    <g
       clip-path="url(#4de09a81ce)"
       id="g25">
      <path
         fill="#545454"
         d="m 178.125,160.125 h 18.75 v 18.75 h -18.75 z m 0,0"
         fill-opacity="1"
         fill-rule="nonzero"
         id="path24" />
    </g>
  </g>
  <g
     clip-path="url(#79d1ebd8eb)"
     id="g28"
     transform="matrix(0.69234098,0,0,0.69234098,-54.893901,-34.384543)">
    <g
       clip-path="url(#d6117bc074)"
       id="g27">
      <path
         fill="#28292a"
         d="m 183.75,165.75 h 7.5 v 7.5 h -7.5 z m 0,0"
         fill-opacity="1"
         fill-rule="nonzero"
         id="path26" />
    </g>
  </g>
</svg>
