<svg xmlns="http://www.w3.org/2000/svg" xmlns:xlink="http://www.w3.org/1999/xlink" width="500" zoomAndPan="magnify" viewBox="0 0 375 374.999991" height="500" preserveAspectRatio="xMidYMid meet" version="1.0"><defs><g/></defs><rect x="-37.5" width="450" fill="#ffffff" y="-37.499999" height="449.999989" fill-opacity="1"/><rect x="-37.5" width="450" fill="#212226" y="-37.499999" height="449.999989" fill-opacity="1"/><g fill="#ffffff" fill-opacity="1"><g transform="translate(38.841605, 326.249979)"><g><path d="M 18.8125 0.546875 C 15.601562 0.546875 12.695312 -0.148438 10.09375 -1.546875 C 7.5 -2.941406 5.457031 -4.875 3.96875 -7.34375 C 2.488281 -9.820312 1.75 -12.625 1.75 -15.75 C 1.75 -18.875 2.488281 -21.671875 3.96875 -24.140625 C 5.457031 -26.617188 7.5 -28.554688 10.09375 -29.953125 C 12.695312 -31.347656 15.617188 -32.046875 18.859375 -32.046875 C 21.585938 -32.046875 24.050781 -31.5625 26.25 -30.59375 C 28.457031 -29.632812 30.3125 -28.253906 31.8125 -26.453125 L 27.140625 -22.140625 C 25.003906 -24.597656 22.363281 -25.828125 19.21875 -25.828125 C 17.269531 -25.828125 15.53125 -25.398438 14 -24.546875 C 12.46875 -23.691406 11.273438 -22.5 10.421875 -20.96875 C 9.566406 -19.4375 9.140625 -17.695312 9.140625 -15.75 C 9.140625 -13.800781 9.566406 -12.0625 10.421875 -10.53125 C 11.273438 -9 12.46875 -7.804688 14 -6.953125 C 15.53125 -6.097656 17.269531 -5.671875 19.21875 -5.671875 C 22.363281 -5.671875 25.003906 -6.914062 27.140625 -9.40625 L 31.8125 -5.078125 C 30.3125 -3.253906 28.453125 -1.859375 26.234375 -0.890625 C 24.015625 0.0664062 21.539062 0.546875 18.8125 0.546875 Z M 18.8125 0.546875 "/></g></g></g><g fill="#ffffff" fill-opacity="1"><g transform="translate(76.183036, 326.249979)"><g><path d="M 17.734375 0.546875 C 13.234375 0.546875 9.726562 -0.695312 7.21875 -3.1875 C 4.71875 -5.6875 3.46875 -9.242188 3.46875 -13.859375 L 3.46875 -31.5 L 10.75 -31.5 L 10.75 -14.125 C 10.75 -8.488281 13.09375 -5.671875 17.78125 -5.671875 C 20.050781 -5.671875 21.785156 -6.351562 22.984375 -7.71875 C 24.191406 -9.082031 24.796875 -11.21875 24.796875 -14.125 L 24.796875 -31.5 L 32 -31.5 L 32 -13.859375 C 32 -9.242188 30.742188 -5.6875 28.234375 -3.1875 C 25.734375 -0.695312 22.234375 0.546875 17.734375 0.546875 Z M 17.734375 0.546875 "/></g></g></g><g fill="#ffffff" fill-opacity="1"><g transform="translate(115.998828, 326.249979)"><g><path d="M 23.8125 0 L 17.734375 -8.78125 L 11.03125 -8.78125 L 11.03125 0 L 3.734375 0 L 3.734375 -31.5 L 17.375 -31.5 C 20.164062 -31.5 22.585938 -31.03125 24.640625 -30.09375 C 26.691406 -29.164062 28.269531 -27.847656 29.375 -26.140625 C 30.488281 -24.429688 31.046875 -22.40625 31.046875 -20.0625 C 31.046875 -17.726562 30.484375 -15.710938 29.359375 -14.015625 C 28.234375 -12.316406 26.632812 -11.019531 24.5625 -10.125 L 31.640625 0 Z M 23.671875 -20.0625 C 23.671875 -21.832031 23.097656 -23.191406 21.953125 -24.140625 C 20.816406 -25.085938 19.15625 -25.5625 16.96875 -25.5625 L 11.03125 -25.5625 L 11.03125 -14.578125 L 16.96875 -14.578125 C 19.15625 -14.578125 20.816406 -15.054688 21.953125 -16.015625 C 23.097656 -16.972656 23.671875 -18.320312 23.671875 -20.0625 Z M 23.671875 -20.0625 "/></g></g></g><g fill="#ffffff" fill-opacity="1"><g transform="translate(153.430235, 326.249979)"><g><path d="M 24.484375 -6.75 L 9.859375 -6.75 L 7.0625 0 L -0.40625 0 L 13.640625 -31.5 L 20.828125 -31.5 L 34.921875 0 L 27.265625 0 Z M 22.1875 -12.28125 L 17.1875 -24.34375 L 12.1875 -12.28125 Z M 22.1875 -12.28125 "/></g></g></g><g fill="#ffffff" fill-opacity="1"><g transform="translate(192.256282, 326.249979)"><g><path d="M 18.8125 0.546875 C 15.601562 0.546875 12.695312 -0.148438 10.09375 -1.546875 C 7.5 -2.941406 5.457031 -4.875 3.96875 -7.34375 C 2.488281 -9.820312 1.75 -12.625 1.75 -15.75 C 1.75 -18.875 2.488281 -21.671875 3.96875 -24.140625 C 5.457031 -26.617188 7.5 -28.554688 10.09375 -29.953125 C 12.695312 -31.347656 15.617188 -32.046875 18.859375 -32.046875 C 21.585938 -32.046875 24.050781 -31.5625 26.25 -30.59375 C 28.457031 -29.632812 30.3125 -28.253906 31.8125 -26.453125 L 27.140625 -22.140625 C 25.003906 -24.597656 22.363281 -25.828125 19.21875 -25.828125 C 17.269531 -25.828125 15.53125 -25.398438 14 -24.546875 C 12.46875 -23.691406 11.273438 -22.5 10.421875 -20.96875 C 9.566406 -19.4375 9.140625 -17.695312 9.140625 -15.75 C 9.140625 -13.800781 9.566406 -12.0625 10.421875 -10.53125 C 11.273438 -9 12.46875 -7.804688 14 -6.953125 C 15.53125 -6.097656 17.269531 -5.671875 19.21875 -5.671875 C 22.363281 -5.671875 25.003906 -6.914062 27.140625 -9.40625 L 31.8125 -5.078125 C 30.3125 -3.253906 28.453125 -1.859375 26.234375 -0.890625 C 24.015625 0.0664062 21.539062 0.546875 18.8125 0.546875 Z M 18.8125 0.546875 "/></g></g></g><g fill="#ffffff" fill-opacity="1"><g transform="translate(229.59771, 326.249979)"><g><path d="M 18.984375 0.546875 C 15.710938 0.546875 12.765625 -0.15625 10.140625 -1.5625 C 7.515625 -2.976562 5.457031 -4.921875 3.96875 -7.390625 C 2.488281 -9.867188 1.75 -12.65625 1.75 -15.75 C 1.75 -18.84375 2.488281 -21.625 3.96875 -24.09375 C 5.457031 -26.570312 7.515625 -28.515625 10.140625 -29.921875 C 12.765625 -31.335938 15.710938 -32.046875 18.984375 -32.046875 C 22.253906 -32.046875 25.191406 -31.335938 27.796875 -29.921875 C 30.410156 -28.515625 32.46875 -26.570312 33.96875 -24.09375 C 35.46875 -21.625 36.21875 -18.84375 36.21875 -15.75 C 36.21875 -12.65625 35.46875 -9.867188 33.96875 -7.390625 C 32.46875 -4.921875 30.410156 -2.976562 27.796875 -1.5625 C 25.191406 -0.15625 22.253906 0.546875 18.984375 0.546875 Z M 18.984375 -5.671875 C 20.847656 -5.671875 22.53125 -6.097656 24.03125 -6.953125 C 25.53125 -7.804688 26.707031 -9 27.5625 -10.53125 C 28.414062 -12.0625 28.84375 -13.800781 28.84375 -15.75 C 28.84375 -17.695312 28.414062 -19.4375 27.5625 -20.96875 C 26.707031 -22.5 25.53125 -23.691406 24.03125 -24.546875 C 22.53125 -25.398438 20.847656 -25.828125 18.984375 -25.828125 C 17.128906 -25.828125 15.453125 -25.398438 13.953125 -24.546875 C 12.453125 -23.691406 11.273438 -22.5 10.421875 -20.96875 C 9.566406 -19.4375 9.140625 -17.695312 9.140625 -15.75 C 9.140625 -13.800781 9.566406 -12.0625 10.421875 -10.53125 C 11.273438 -9 12.453125 -7.804688 13.953125 -6.953125 C 15.453125 -6.097656 17.128906 -5.671875 18.984375 -5.671875 Z M 18.984375 -5.671875 "/></g></g></g><g fill="#ffffff" fill-opacity="1"><g transform="translate(271.932859, 326.249979)"><g><path d="M 3.734375 -31.5 L 18.046875 -31.5 C 21.460938 -31.5 24.484375 -30.84375 27.109375 -29.53125 C 29.734375 -28.226562 31.773438 -26.390625 33.234375 -24.015625 C 34.691406 -21.648438 35.421875 -18.894531 35.421875 -15.75 C 35.421875 -12.601562 34.691406 -9.84375 33.234375 -7.46875 C 31.773438 -5.101562 29.734375 -3.265625 27.109375 -1.953125 C 24.484375 -0.648438 21.460938 0 18.046875 0 L 3.734375 0 Z M 17.6875 -5.984375 C 20.832031 -5.984375 23.34375 -6.859375 25.21875 -8.609375 C 27.09375 -10.367188 28.03125 -12.75 28.03125 -15.75 C 28.03125 -18.75 27.09375 -21.125 25.21875 -22.875 C 23.34375 -24.632812 20.832031 -25.515625 17.6875 -25.515625 L 11.03125 -25.515625 L 11.03125 -5.984375 Z M 17.6875 -5.984375 "/></g></g></g><g fill="#ffffff" fill-opacity="1"><g transform="translate(313.458201, 326.249979)"><g><path d="M 28.125 -5.84375 L 28.125 0 L 3.734375 0 L 3.734375 -31.5 L 27.546875 -31.5 L 27.546875 -25.65625 L 10.984375 -25.65625 L 10.984375 -18.8125 L 25.609375 -18.8125 L 25.609375 -13.140625 L 10.984375 -13.140625 L 10.984375 -5.84375 Z M 28.125 -5.84375 "/></g></g></g></svg>