<svg xmlns="http://www.w3.org/2000/svg" xmlns:xlink="http://www.w3.org/1999/xlink" width="500" zoomAndPan="magnify" viewBox="0 0 375 374.999991" height="500" preserveAspectRatio="xMidYMid meet" version="1.0"><defs><g/><clipPath id="769981cea0"><path d="M 79.265625 49.625 L 179 49.625 L 179 221 L 79.265625 221 Z M 79.265625 49.625 " clip-rule="nonzero"/></clipPath><clipPath id="8e9469e893"><path d="M 196.746094 49.746094 L 295.96875 49.746094 L 295.96875 220.792969 L 196.746094 220.792969 Z M 196.746094 49.746094 " clip-rule="nonzero"/></clipPath><clipPath id="e688fca5e8"><path d="M 88.832031 226.234375 L 286.371094 226.234375 L 286.371094 294.125 L 88.832031 294.125 Z M 88.832031 226.234375 " clip-rule="nonzero"/></clipPath><clipPath id="ffa4e94147"><path d="M 113.625 171.375 L 185.625 171.375 L 185.625 243.375 L 113.625 243.375 Z M 113.625 171.375 " clip-rule="nonzero"/></clipPath><clipPath id="c08aa271ac"><path d="M 113.625 95.625 L 185.625 95.625 L 185.625 167.625 L 113.625 167.625 Z M 113.625 95.625 " clip-rule="nonzero"/></clipPath><clipPath id="5f36197f58"><path d="M 189.375 95.625 L 261.375 95.625 L 261.375 167.625 L 189.375 167.625 Z M 189.375 95.625 " clip-rule="nonzero"/></clipPath><clipPath id="db773b93c9"><path d="M 189.375 171.375 L 261.375 171.375 L 261.375 243.375 L 189.375 243.375 Z M 189.375 171.375 " clip-rule="nonzero"/></clipPath><clipPath id="f44ed77943"><path d="M 178.125 160.125 L 196.875 160.125 L 196.875 178.875 L 178.125 178.875 Z M 178.125 160.125 " clip-rule="nonzero"/></clipPath><clipPath id="b8fab54246"><path d="M 187.5 160.125 C 182.324219 160.125 178.125 164.324219 178.125 169.5 C 178.125 174.675781 182.324219 178.875 187.5 178.875 C 192.675781 178.875 196.875 174.675781 196.875 169.5 C 196.875 164.324219 192.675781 160.125 187.5 160.125 Z M 187.5 160.125 " clip-rule="nonzero"/></clipPath><clipPath id="96b737f6fb"><path d="M 183.75 165.75 L 191.25 165.75 L 191.25 173.25 L 183.75 173.25 Z M 183.75 165.75 " clip-rule="nonzero"/></clipPath><clipPath id="306bb0ff54"><path d="M 187.5 165.75 C 185.429688 165.75 183.75 167.429688 183.75 169.5 C 183.75 171.570312 185.429688 173.25 187.5 173.25 C 189.570312 173.25 191.25 171.570312 191.25 169.5 C 191.25 167.429688 189.570312 165.75 187.5 165.75 Z M 187.5 165.75 " clip-rule="nonzero"/></clipPath></defs><rect x="-37.5" width="450" fill="#ffffff" y="-37.499999" height="449.999989" fill-opacity="1"/><rect x="-37.5" width="450" fill="#212226" y="-37.499999" height="449.999989" fill-opacity="1"/><g clip-path="url(#769981cea0)"><path fill="#28292a" d="M 98.015625 209.996094 L 98.015625 117.691406 C 98.015625 117.519531 98.105469 117.363281 98.253906 117.277344 L 178.210938 71.125 C 178.359375 71.039062 178.449219 70.878906 178.449219 70.710938 L 178.449219 50.226562 C 178.449219 49.855469 178.050781 49.625 177.730469 49.808594 L 79.550781 106.480469 C 79.402344 106.566406 79.3125 106.722656 79.3125 106.894531 L 79.3125 220.238281 C 79.3125 220.605469 79.710938 220.835938 80.03125 220.652344 L 97.777344 210.410156 C 97.921875 210.324219 98.015625 210.167969 98.015625 209.996094 " fill-opacity="1" fill-rule="nonzero"/></g><g clip-path="url(#8e9469e893)"><path fill="#28292a" d="M 197.070312 71.125 L 277.027344 117.277344 C 277.175781 117.363281 277.265625 117.519531 277.265625 117.691406 L 277.265625 209.996094 C 277.265625 210.167969 277.359375 210.324219 277.503906 210.410156 L 295.25 220.652344 C 295.570312 220.835938 295.96875 220.605469 295.96875 220.238281 L 295.96875 106.894531 C 295.96875 106.722656 295.878906 106.566406 295.730469 106.480469 L 197.550781 49.808594 C 197.230469 49.625 196.828125 49.855469 196.828125 50.226562 L 196.828125 70.710938 C 196.828125 70.878906 196.921875 71.039062 197.070312 71.125 " fill-opacity="1" fill-rule="nonzero"/></g><g clip-path="url(#e688fca5e8)"><path fill="#28292a" d="M 267.835938 226.320312 L 187.878906 272.472656 C 187.730469 272.558594 187.550781 272.558594 187.398438 272.472656 L 107.445312 226.320312 C 107.296875 226.238281 107.113281 226.238281 106.964844 226.320312 L 89.21875 236.566406 C 88.898438 236.75 88.898438 237.210938 89.21875 237.394531 L 187.398438 294.066406 C 187.550781 294.152344 187.730469 294.152344 187.878906 294.066406 L 286.0625 237.394531 C 286.378906 237.210938 286.378906 236.75 286.0625 236.566406 L 268.316406 226.320312 C 268.167969 226.238281 267.984375 226.238281 267.835938 226.320312 " fill-opacity="1" fill-rule="nonzero"/></g><g clip-path="url(#ffa4e94147)"><path fill="#ce9d36" d="M 113.625 171.375 L 125.78125 171.375 C 125.78125 204.371094 152.628906 231.21875 185.625 231.21875 L 185.625 243.375 C 180.742188 243.375 175.863281 242.882812 171.121094 241.914062 C 166.496094 240.964844 161.945312 239.554688 157.597656 237.714844 C 153.328125 235.910156 149.214844 233.675781 145.363281 231.074219 C 141.554688 228.5 137.96875 225.542969 134.714844 222.285156 C 131.457031 219.03125 128.5 215.445312 125.925781 211.636719 C 123.324219 207.785156 121.089844 203.671875 119.285156 199.402344 C 117.445312 195.054688 116.035156 190.503906 115.085938 185.878906 C 114.117188 181.136719 113.625 176.257812 113.625 171.375 Z M 113.625 171.375 " fill-opacity="1" fill-rule="nonzero"/></g><g clip-path="url(#c08aa271ac)"><path fill="#ce9d36" d="M 185.625 95.625 L 185.625 107.78125 C 152.628906 107.78125 125.78125 134.628906 125.78125 167.625 L 113.625 167.625 C 113.625 162.742188 114.117188 157.863281 115.085938 153.121094 C 116.035156 148.496094 117.445312 143.945312 119.285156 139.597656 C 121.089844 135.328125 123.324219 131.214844 125.925781 127.363281 C 128.5 123.554688 131.457031 119.96875 134.714844 116.714844 C 137.96875 113.457031 141.554688 110.5 145.363281 107.925781 C 149.214844 105.324219 153.328125 103.089844 157.597656 101.285156 C 161.945312 99.445312 166.496094 98.035156 171.121094 97.085938 C 175.863281 96.117188 180.742188 95.625 185.625 95.625 Z M 185.625 95.625 " fill-opacity="1" fill-rule="nonzero"/></g><g clip-path="url(#5f36197f58)"><path fill="#ce9d36" d="M 261.375 167.625 L 249.21875 167.625 C 249.21875 134.628906 222.371094 107.78125 189.375 107.78125 L 189.375 95.625 C 194.257812 95.625 199.136719 96.117188 203.878906 97.085938 C 208.503906 98.035156 213.054688 99.445312 217.402344 101.285156 C 221.671875 103.089844 225.785156 105.324219 229.636719 107.925781 C 233.445312 110.5 237.03125 113.457031 240.285156 116.714844 C 243.542969 119.96875 246.5 123.554688 249.074219 127.363281 C 251.675781 131.214844 253.910156 135.328125 255.714844 139.597656 C 257.554688 143.945312 258.964844 148.496094 259.914062 153.121094 C 260.882812 157.863281 261.375 162.742188 261.375 167.625 Z M 261.375 167.625 " fill-opacity="1" fill-rule="nonzero"/></g><g clip-path="url(#db773b93c9)"><path fill="#ce9d36" d="M 189.375 243.375 L 189.375 231.21875 C 222.371094 231.21875 249.21875 204.371094 249.21875 171.375 L 261.375 171.375 C 261.375 176.257812 260.882812 181.136719 259.914062 185.878906 C 258.964844 190.503906 257.554688 195.054688 255.714844 199.402344 C 253.910156 203.671875 251.675781 207.785156 249.074219 211.636719 C 246.5 215.445312 243.542969 219.03125 240.285156 222.285156 C 237.03125 225.542969 233.445312 228.5 229.636719 231.074219 C 225.785156 233.675781 221.671875 235.910156 217.402344 237.714844 C 213.054688 239.554688 208.503906 240.964844 203.878906 241.914062 C 199.136719 242.882812 194.257812 243.375 189.375 243.375 Z M 189.375 243.375 " fill-opacity="1" fill-rule="nonzero"/></g><g fill="#28292a" fill-opacity="1"><g transform="translate(131.049341, 220.499986)"><g><path d="M 60.1875 0.859375 C 50.207031 0.859375 41.207031 -1.347656 33.1875 -5.765625 C 25.175781 -10.179688 18.890625 -16.300781 14.328125 -24.125 C 9.765625 -31.945312 7.484375 -40.707031 7.484375 -50.40625 C 7.484375 -60.09375 9.765625 -68.847656 14.328125 -76.671875 C 18.890625 -84.503906 25.203125 -90.625 33.265625 -95.03125 C 41.328125 -99.445312 50.351562 -101.65625 60.34375 -101.65625 C 67.820312 -101.65625 74.726562 -100.40625 81.0625 -97.90625 C 87.40625 -95.414062 92.785156 -91.769531 97.203125 -86.96875 L 90.4375 -80.203125 C 82.5625 -88.171875 72.625 -92.15625 60.625 -92.15625 C 52.65625 -92.15625 45.40625 -90.332031 38.875 -86.6875 C 32.351562 -83.039062 27.242188 -78.046875 23.546875 -71.703125 C 19.847656 -65.367188 18 -58.269531 18 -50.40625 C 18 -42.53125 19.847656 -35.421875 23.546875 -29.078125 C 27.242188 -22.742188 32.351562 -17.753906 38.875 -14.109375 C 45.40625 -10.460938 52.65625 -8.640625 60.625 -8.640625 C 72.71875 -8.640625 82.65625 -12.671875 90.4375 -20.734375 L 97.203125 -13.96875 C 92.785156 -9.164062 87.382812 -5.492188 81 -2.953125 C 74.613281 -0.410156 67.675781 0.859375 60.1875 0.859375 Z M 60.1875 0.859375 "/></g></g></g><g fill="#deb24f" fill-opacity="1"><g transform="translate(240.94285, 129.747354)"><g><path d="M -49.3125 -0.703125 C -41.132812 -0.703125 -33.757812 1.101562 -27.1875 4.71875 C -20.625 8.332031 -15.472656 13.34375 -11.734375 19.75 C -8.003906 26.164062 -6.140625 33.347656 -6.140625 41.296875 C -6.140625 49.234375 -8.003906 56.40625 -11.734375 62.8125 C -15.472656 69.226562 -20.644531 74.242188 -27.25 77.859375 C -33.863281 81.484375 -41.257812 83.296875 -49.4375 83.296875 C -55.570312 83.296875 -61.234375 82.269531 -66.421875 80.21875 C -71.617188 78.175781 -76.023438 75.191406 -79.640625 71.265625 L -74.09375 65.71875 C -67.644531 72.25 -59.503906 75.515625 -49.671875 75.515625 C -43.140625 75.515625 -37.195312 74.019531 -31.84375 71.03125 C -26.5 68.039062 -22.3125 63.945312 -19.28125 58.75 C -16.257812 53.5625 -14.75 47.742188 -14.75 41.296875 C -14.75 34.847656 -16.257812 29.023438 -19.28125 23.828125 C -22.3125 18.640625 -26.5 14.550781 -31.84375 11.5625 C -37.195312 8.570312 -43.140625 7.078125 -49.671875 7.078125 C -59.578125 7.078125 -67.71875 10.378906 -74.09375 16.984375 L -79.640625 11.4375 C -76.023438 7.507812 -71.597656 4.503906 -66.359375 2.421875 C -61.128906 0.335938 -55.445312 -0.703125 -49.3125 -0.703125 Z M -49.3125 -0.703125 "/></g></g></g><g clip-path="url(#f44ed77943)"><g clip-path="url(#b8fab54246)"><path fill="#545454" d="M 178.125 160.125 L 196.875 160.125 L 196.875 178.875 L 178.125 178.875 Z M 178.125 160.125 " fill-opacity="1" fill-rule="nonzero"/></g></g><g clip-path="url(#96b737f6fb)"><g clip-path="url(#306bb0ff54)"><path fill="#28292a" d="M 183.75 165.75 L 191.25 165.75 L 191.25 173.25 L 183.75 173.25 Z M 183.75 165.75 " fill-opacity="1" fill-rule="nonzero"/></g></g></svg>