<svg xmlns="http://www.w3.org/2000/svg" xmlns:xlink="http://www.w3.org/1999/xlink" width="500" zoomAndPan="magnify" viewBox="0 0 375 374.999991" height="500" preserveAspectRatio="xMidYMid meet" version="1.0"><defs><g/><clipPath id="b3060c4aac"><path d="M 40.71875 345.84375 L 54.851562 345.84375 L 54.851562 352.90625 L 40.71875 352.90625 Z M 40.71875 345.84375 " clip-rule="nonzero"/></clipPath><clipPath id="5cfd377ede"><path d="M 51.320312 345.84375 C 53.269531 345.84375 54.851562 347.421875 54.851562 349.375 C 54.851562 351.328125 53.269531 352.90625 51.320312 352.90625 L 44.253906 352.90625 C 42.300781 352.90625 40.71875 351.328125 40.71875 349.375 C 40.71875 347.421875 42.300781 345.84375 44.253906 345.84375 Z M 51.320312 345.84375 " clip-rule="nonzero"/></clipPath><clipPath id="07caaf7986"><path d="M 328.398438 345.84375 L 342.53125 345.84375 L 342.53125 352.90625 L 328.398438 352.90625 Z M 328.398438 345.84375 " clip-rule="nonzero"/></clipPath><clipPath id="b96617443a"><path d="M 338.996094 345.84375 C 340.949219 345.84375 342.53125 347.421875 342.53125 349.375 C 342.53125 351.328125 340.949219 352.90625 338.996094 352.90625 L 331.929688 352.90625 C 329.980469 352.90625 328.398438 351.328125 328.398438 349.375 C 328.398438 347.421875 329.980469 345.84375 331.929688 345.84375 Z M 338.996094 345.84375 " clip-rule="nonzero"/></clipPath></defs><rect x="-37.5" width="450" fill="#ffffff" y="-37.499999" height="449.999989" fill-opacity="1"/><rect x="-37.5" width="450" fill="#212226" y="-37.499999" height="449.999989" fill-opacity="1"/><g clip-path="url(#b3060c4aac)"><g clip-path="url(#5cfd377ede)"><path fill="#ce9d36" d="M 40.71875 345.84375 L 54.851562 345.84375 L 54.851562 352.90625 L 40.71875 352.90625 Z M 40.71875 345.84375 " fill-opacity="1" fill-rule="nonzero"/></g></g><g fill="#ffffff" fill-opacity="1"><g transform="translate(69.310152, 356.499937)"><g><path d="M 7.796875 0.203125 C 6.484375 0.203125 5.328125 -0.0664062 4.328125 -0.609375 C 3.328125 -1.160156 2.539062 -1.984375 1.96875 -3.078125 C 1.40625 -4.179688 1.125 -5.535156 1.125 -7.140625 C 1.125 -8.742188 1.40625 -10.09375 1.96875 -11.1875 C 2.539062 -12.289062 3.328125 -13.113281 4.328125 -13.65625 C 5.328125 -14.207031 6.484375 -14.484375 7.796875 -14.484375 C 9.171875 -14.484375 10.335938 -14.210938 11.296875 -13.671875 C 12.265625 -13.140625 12.953125 -12.320312 13.359375 -11.21875 L 11.296875 -9.96875 L 11.0625 -9.96875 C 10.75 -10.707031 10.332031 -11.238281 9.8125 -11.5625 C 9.289062 -11.882812 8.617188 -12.046875 7.796875 -12.046875 C 6.617188 -12.046875 5.695312 -11.65625 5.03125 -10.875 C 4.363281 -10.09375 4.03125 -8.847656 4.03125 -7.140625 C 4.03125 -5.441406 4.363281 -4.195312 5.03125 -3.40625 C 5.695312 -2.625 6.617188 -2.234375 7.796875 -2.234375 C 9.660156 -2.234375 10.800781 -3.132812 11.21875 -4.9375 L 11.453125 -4.9375 L 13.53125 -3.859375 C 13.144531 -2.503906 12.476562 -1.488281 11.53125 -0.8125 C 10.59375 -0.132812 9.347656 0.203125 7.796875 0.203125 Z M 7.796875 0.203125 "/></g></g></g><g fill="#ffffff" fill-opacity="1"><g transform="translate(85.10859, 356.499937)"><g><path d="M 7.5625 0.203125 C 5.601562 0.203125 4.144531 -0.257812 3.1875 -1.1875 C 2.238281 -2.125 1.765625 -3.515625 1.765625 -5.359375 L 1.765625 -14.28125 L 4.53125 -14.28125 L 4.53125 -5.375 C 4.53125 -4.332031 4.78125 -3.550781 5.28125 -3.03125 C 5.78125 -2.507812 6.539062 -2.25 7.5625 -2.25 C 9.59375 -2.25 10.609375 -3.289062 10.609375 -5.375 L 10.609375 -14.28125 L 13.375 -14.28125 L 13.375 -5.359375 C 13.375 -3.515625 12.894531 -2.125 11.9375 -1.1875 C 10.988281 -0.257812 9.53125 0.203125 7.5625 0.203125 Z M 7.5625 0.203125 "/></g></g></g><g fill="#ffffff" fill-opacity="1"><g transform="translate(102.039397, 356.499937)"><g><path d="M 1.859375 0 L 1.859375 -14.28125 L 7.59375 -14.28125 C 9.070312 -14.28125 10.1875 -13.9375 10.9375 -13.25 C 11.6875 -12.570312 12.0625 -11.632812 12.0625 -10.4375 C 12.0625 -9.570312 11.84375 -8.863281 11.40625 -8.3125 C 10.96875 -7.757812 10.3125 -7.335938 9.4375 -7.046875 L 9.4375 -6.84375 C 9.882812 -6.644531 10.242188 -6.351562 10.515625 -5.96875 C 10.796875 -5.582031 11.0625 -5.015625 11.3125 -4.265625 L 12.734375 0 L 9.828125 0 L 8.4375 -4.265625 C 8.289062 -4.691406 8.128906 -5.023438 7.953125 -5.265625 C 7.773438 -5.503906 7.546875 -5.675781 7.265625 -5.78125 C 6.992188 -5.894531 6.632812 -5.953125 6.1875 -5.953125 L 4.671875 -5.953125 L 4.671875 0 Z M 7.25 -8.1875 C 8.613281 -8.1875 9.296875 -8.820312 9.296875 -10.09375 C 9.296875 -11.394531 8.613281 -12.046875 7.25 -12.046875 L 4.671875 -12.046875 L 4.671875 -8.1875 Z M 7.25 -8.1875 "/></g></g></g><g fill="#ffffff" fill-opacity="1"><g transform="translate(117.183795, 356.499937)"><g><path d="M 13.703125 0 L 10.734375 0 L 9.65625 -3.296875 L 4.1875 -3.296875 L 3.109375 0 L 0.21875 0 L 5.140625 -14.28125 L 8.765625 -14.28125 Z M 6.78125 -11.296875 L 4.953125 -5.671875 L 8.875 -5.671875 L 7.03125 -11.296875 Z M 6.78125 -11.296875 "/></g></g></g><g fill="#ffffff" fill-opacity="1"><g transform="translate(132.894375, 356.499937)"><g><path d="M 11.453125 -14.28125 L 11.453125 -11.90625 L 7.328125 -11.90625 L 7.328125 0 L 4.515625 0 L 4.515625 -11.90625 L 0.390625 -11.90625 L 0.390625 -14.28125 Z M 11.453125 -14.28125 "/></g></g></g><g fill="#ffffff" fill-opacity="1"><g transform="translate(146.525689, 356.499937)"><g><path d="M 4.671875 -6.265625 L 4.671875 -2.359375 L 11.5 -2.359375 L 11.5 0 L 1.859375 0 L 1.859375 -14.28125 L 11.34375 -14.28125 L 11.34375 -11.921875 L 4.671875 -11.921875 L 4.671875 -8.578125 L 10.5 -8.578125 L 10.5 -6.265625 Z M 4.671875 -6.265625 "/></g></g></g><g fill="#ffffff" fill-opacity="1"><g transform="translate(160.596285, 356.499937)"><g><path d="M 7 -14.28125 C 9.3125 -14.28125 11.078125 -13.679688 12.296875 -12.484375 C 13.515625 -11.285156 14.125 -9.503906 14.125 -7.140625 C 14.125 -4.785156 13.515625 -3.003906 12.296875 -1.796875 C 11.078125 -0.597656 9.3125 0 7 0 L 1.859375 0 L 1.859375 -14.28125 Z M 6.828125 -2.375 C 8.296875 -2.375 9.394531 -2.75 10.125 -3.5 C 10.851562 -4.25 11.21875 -5.460938 11.21875 -7.140625 C 11.21875 -8.816406 10.851562 -10.03125 10.125 -10.78125 C 9.394531 -11.53125 8.296875 -11.90625 6.828125 -11.90625 L 4.671875 -11.90625 L 4.671875 -2.375 Z M 6.828125 -2.375 "/></g></g></g><g fill="#ffffff" fill-opacity="1"><g transform="translate(177.653994, 356.499937)"><g/></g></g><g fill="#ffffff" fill-opacity="1"><g transform="translate(184.168955, 356.499937)"><g><path d="M 7.796875 0.203125 C 6.484375 0.203125 5.328125 -0.0664062 4.328125 -0.609375 C 3.328125 -1.160156 2.539062 -1.984375 1.96875 -3.078125 C 1.40625 -4.179688 1.125 -5.535156 1.125 -7.140625 C 1.125 -8.742188 1.40625 -10.09375 1.96875 -11.1875 C 2.539062 -12.289062 3.328125 -13.113281 4.328125 -13.65625 C 5.328125 -14.207031 6.484375 -14.484375 7.796875 -14.484375 C 9.171875 -14.484375 10.335938 -14.210938 11.296875 -13.671875 C 12.265625 -13.140625 12.953125 -12.320312 13.359375 -11.21875 L 11.296875 -9.96875 L 11.0625 -9.96875 C 10.75 -10.707031 10.332031 -11.238281 9.8125 -11.5625 C 9.289062 -11.882812 8.617188 -12.046875 7.796875 -12.046875 C 6.617188 -12.046875 5.695312 -11.65625 5.03125 -10.875 C 4.363281 -10.09375 4.03125 -8.847656 4.03125 -7.140625 C 4.03125 -5.441406 4.363281 -4.195312 5.03125 -3.40625 C 5.695312 -2.625 6.617188 -2.234375 7.796875 -2.234375 C 9.660156 -2.234375 10.800781 -3.132812 11.21875 -4.9375 L 11.453125 -4.9375 L 13.53125 -3.859375 C 13.144531 -2.503906 12.476562 -1.488281 11.53125 -0.8125 C 10.59375 -0.132812 9.347656 0.203125 7.796875 0.203125 Z M 7.796875 0.203125 "/></g></g></g><g fill="#ffffff" fill-opacity="1"><g transform="translate(199.967397, 356.499937)"><g><path d="M 1.859375 0 L 1.859375 -14.28125 L 7.59375 -14.28125 C 9.070312 -14.28125 10.1875 -13.9375 10.9375 -13.25 C 11.6875 -12.570312 12.0625 -11.632812 12.0625 -10.4375 C 12.0625 -9.570312 11.84375 -8.863281 11.40625 -8.3125 C 10.96875 -7.757812 10.3125 -7.335938 9.4375 -7.046875 L 9.4375 -6.84375 C 9.882812 -6.644531 10.242188 -6.351562 10.515625 -5.96875 C 10.796875 -5.582031 11.0625 -5.015625 11.3125 -4.265625 L 12.734375 0 L 9.828125 0 L 8.4375 -4.265625 C 8.289062 -4.691406 8.128906 -5.023438 7.953125 -5.265625 C 7.773438 -5.503906 7.546875 -5.675781 7.265625 -5.78125 C 6.992188 -5.894531 6.632812 -5.953125 6.1875 -5.953125 L 4.671875 -5.953125 L 4.671875 0 Z M 7.25 -8.1875 C 8.613281 -8.1875 9.296875 -8.820312 9.296875 -10.09375 C 9.296875 -11.394531 8.613281 -12.046875 7.25 -12.046875 L 4.671875 -12.046875 L 4.671875 -8.1875 Z M 7.25 -8.1875 "/></g></g></g><g fill="#ffffff" fill-opacity="1"><g transform="translate(215.111797, 356.499937)"><g><path d="M 4.671875 -6.265625 L 4.671875 -2.359375 L 11.5 -2.359375 L 11.5 0 L 1.859375 0 L 1.859375 -14.28125 L 11.34375 -14.28125 L 11.34375 -11.921875 L 4.671875 -11.921875 L 4.671875 -8.578125 L 10.5 -8.578125 L 10.5 -6.265625 Z M 4.671875 -6.265625 "/></g></g></g><g fill="#ffffff" fill-opacity="1"><g transform="translate(229.182398, 356.499937)"><g><path d="M 13.703125 0 L 10.734375 0 L 9.65625 -3.296875 L 4.1875 -3.296875 L 3.109375 0 L 0.21875 0 L 5.140625 -14.28125 L 8.765625 -14.28125 Z M 6.78125 -11.296875 L 4.953125 -5.671875 L 8.875 -5.671875 L 7.03125 -11.296875 Z M 6.78125 -11.296875 "/></g></g></g><g fill="#ffffff" fill-opacity="1"><g transform="translate(244.892984, 356.499937)"><g><path d="M 11.453125 -14.28125 L 11.453125 -11.90625 L 7.328125 -11.90625 L 7.328125 0 L 4.515625 0 L 4.515625 -11.90625 L 0.390625 -11.90625 L 0.390625 -14.28125 Z M 11.453125 -14.28125 "/></g></g></g><g fill="#ffffff" fill-opacity="1"><g transform="translate(258.524304, 356.499937)"><g><path d="M 4.671875 0 L 1.859375 0 L 1.859375 -14.28125 L 4.671875 -14.28125 Z M 4.671875 0 "/></g></g></g><g fill="#ffffff" fill-opacity="1"><g transform="translate(266.864712, 356.499937)"><g><path d="M 7.78125 0.203125 C 6.476562 0.203125 5.328125 -0.0625 4.328125 -0.59375 C 3.328125 -1.125 2.539062 -1.9375 1.96875 -3.03125 C 1.40625 -4.132812 1.125 -5.503906 1.125 -7.140625 C 1.125 -8.773438 1.40625 -10.140625 1.96875 -11.234375 C 2.539062 -12.328125 3.328125 -13.140625 4.328125 -13.671875 C 5.328125 -14.210938 6.476562 -14.484375 7.78125 -14.484375 C 9.09375 -14.484375 10.242188 -14.21875 11.234375 -13.6875 C 12.234375 -13.15625 13.015625 -12.335938 13.578125 -11.234375 C 14.140625 -10.140625 14.421875 -8.773438 14.421875 -7.140625 C 14.421875 -5.503906 14.140625 -4.132812 13.578125 -3.03125 C 13.015625 -1.9375 12.234375 -1.125 11.234375 -0.59375 C 10.242188 -0.0625 9.09375 0.203125 7.78125 0.203125 Z M 7.78125 -2.25 C 8.988281 -2.25 9.910156 -2.632812 10.546875 -3.40625 C 11.191406 -4.1875 11.515625 -5.429688 11.515625 -7.140625 C 11.515625 -8.847656 11.191406 -10.09375 10.546875 -10.875 C 9.910156 -11.65625 8.988281 -12.046875 7.78125 -12.046875 C 6.5625 -12.046875 5.628906 -11.65625 4.984375 -10.875 C 4.347656 -10.09375 4.03125 -8.847656 4.03125 -7.140625 C 4.03125 -5.429688 4.347656 -4.1875 4.984375 -3.40625 C 5.628906 -2.632812 6.5625 -2.25 7.78125 -2.25 Z M 7.78125 -2.25 "/></g></g></g><g fill="#ffffff" fill-opacity="1"><g transform="translate(284.215282, 356.499937)"><g><path d="M 4.59375 0 L 1.859375 0 L 1.859375 -14.28125 L 5.09375 -14.28125 L 10.828125 -5.078125 L 11.078125 -5.125 L 11.078125 -14.28125 L 13.796875 -14.28125 L 13.796875 0 L 10.90625 0 L 4.828125 -9.828125 L 4.59375 -9.78125 Z M 4.59375 0 "/></g></g></g><g fill="#ffffff" fill-opacity="1"><g transform="translate(301.663469, 356.499937)"><g><path d="M 6.328125 0.203125 C 5.335938 0.203125 4.457031 0.0820312 3.6875 -0.15625 C 2.914062 -0.40625 2.269531 -0.726562 1.75 -1.125 C 1.238281 -1.519531 0.847656 -1.957031 0.578125 -2.4375 L 2.125 -4.328125 L 2.375 -4.328125 C 2.800781 -3.691406 3.34375 -3.179688 4 -2.796875 C 4.664062 -2.421875 5.441406 -2.234375 6.328125 -2.234375 C 7.085938 -2.234375 7.65625 -2.390625 8.03125 -2.703125 C 8.414062 -3.023438 8.609375 -3.46875 8.609375 -4.03125 C 8.609375 -4.375 8.546875 -4.65625 8.421875 -4.875 C 8.304688 -5.101562 8.101562 -5.300781 7.8125 -5.46875 C 7.53125 -5.632812 7.144531 -5.773438 6.65625 -5.890625 L 4.8125 -6.3125 C 3.53125 -6.601562 2.570312 -7.085938 1.9375 -7.765625 C 1.3125 -8.453125 1 -9.335938 1 -10.421875 C 1 -11.222656 1.203125 -11.929688 1.609375 -12.546875 C 2.015625 -13.160156 2.601562 -13.632812 3.375 -13.96875 C 4.144531 -14.3125 5.066406 -14.484375 6.140625 -14.484375 C 7.242188 -14.484375 8.1875 -14.335938 8.96875 -14.046875 C 9.75 -13.753906 10.410156 -13.3125 10.953125 -12.71875 L 9.5625 -10.796875 L 9.3125 -10.796875 C 8.914062 -11.222656 8.457031 -11.539062 7.9375 -11.75 C 7.414062 -11.96875 6.816406 -12.078125 6.140625 -12.078125 C 5.367188 -12.078125 4.78125 -11.9375 4.375 -11.65625 C 3.96875 -11.382812 3.765625 -11.007812 3.765625 -10.53125 C 3.765625 -10.082031 3.90625 -9.722656 4.1875 -9.453125 C 4.476562 -9.179688 4.972656 -8.972656 5.671875 -8.828125 L 7.546875 -8.4375 C 8.929688 -8.144531 9.9375 -7.648438 10.5625 -6.953125 C 11.1875 -6.253906 11.5 -5.335938 11.5 -4.203125 C 11.5 -3.316406 11.304688 -2.539062 10.921875 -1.875 C 10.535156 -1.21875 9.953125 -0.707031 9.171875 -0.34375 C 8.398438 0.0195312 7.453125 0.203125 6.328125 0.203125 Z M 6.328125 0.203125 "/></g></g></g><g clip-path="url(#07caaf7986)"><g clip-path="url(#b96617443a)"><path fill="#ce9d36" d="M 328.398438 345.84375 L 342.53125 345.84375 L 342.53125 352.90625 L 328.398438 352.90625 Z M 328.398438 345.84375 " fill-opacity="1" fill-rule="nonzero"/></g></g></svg>